<!-- Generated by IcoMoon.io -->
<svg version="1.1" xmlns="http://www.w3.org/2000/svg" width="28" height="28" viewBox="0 0 28 28">
<title>alarm</title>
<path d="M13.843 23.528c5.048 0 9.154-4.106 9.154-9.154 0-5.047-4.106-9.154-9.154-9.154s-9.154 4.107-9.154 9.154c0 5.048 4.106 9.154 9.154 9.154zM4.25 7.274c0 0.678 0.229 1.317 0.632 1.84 1.037-1.76 2.573-3.185 4.417-4.085-0.549-0.496-1.267-0.779-2.024-0.779-1.668 0-3.025 1.356-3.025 3.024zM20.412 4.25c-0.758 0-1.476 0.283-2.026 0.779 1.845 0.9 3.382 2.326 4.419 4.086 0.404-0.523 0.632-1.162 0.632-1.841 0-1.668-1.357-3.024-3.025-3.024zM24.247 14.374c0 3.115-1.383 5.907-3.557 7.815l1.461 1.79c0.217 0.268 0.178 0.661-0.089 0.88-0.116 0.095-0.256 0.141-0.396 0.141-0.18 0-0.36-0.078-0.484-0.23l-1.477-1.808c-1.67 1.144-3.688 1.816-5.862 1.816-2.173 0-4.191-0.672-5.862-1.815l-1.477 1.807c-0.124 0.152-0.304 0.23-0.484 0.23-0.14 0-0.28-0.046-0.396-0.141-0.267-0.219-0.306-0.612-0.089-0.88l1.462-1.79c-2.175-1.908-3.558-4.7-3.558-7.815 0-1.451 0.3-2.833 0.84-4.089-0.804-0.799-1.279-1.861-1.279-3.011 0-2.356 1.918-4.274 4.275-4.274 1.267 0 2.455 0.562 3.262 1.518 1.040-0.35 2.15-0.548 3.306-0.548s2.265 0.198 3.305 0.547c0.808-0.957 1.996-1.517 3.264-1.517 2.357 0 4.275 1.918 4.275 4.274 0 1.15-0.475 2.212-1.28 3.011 0.54 1.256 0.84 2.638 0.84 4.089zM17.749 13.749c0.345 0 0.625 0.28 0.625 0.625s-0.28 0.625-0.625 0.625h-3.944c-0.345 0-0.625-0.28-0.625-0.625v-5.271c0-0.344 0.28-0.625 0.625-0.625s0.625 0.281 0.625 0.625v4.646h3.319z"></path>
</svg>
