<!-- Generated by IcoMoon.io -->
<svg version="1.1" xmlns="http://www.w3.org/2000/svg" width="28" height="28" viewBox="0 0 28 28">
<title>brandshop</title>
<path d="M13.594 20.765c1.602 0 2.523-0.646 2.523-1.94s-0.905-1.99-2.57-1.99h-1.246v3.93h1.293zM12.301 12.194v3.396h1.067c1.472 0 2.265-0.646 2.265-1.747 0-1.018-0.631-1.649-2.151-1.649h-1.181zM15.52 16.108c1.245 0.372 2.086 1.213 2.086 2.684 0 2.232-1.553 3.267-4.124 3.267h-2.669v-11.159h2.701c2.459 0 3.606 1.18 3.606 2.895 0 1.132-0.598 1.892-1.6 2.313zM14 2l11 7.765v14.235h-1.294v-13.564l-9.706-6.852-9.706 6.852v13.564h-1.294v-14.235l11-7.765z"></path>
</svg>
