<!-- Generated by IcoMoon.io -->
<svg version="1.1" xmlns="http://www.w3.org/2000/svg" width="28" height="28" viewBox="0 0 28 28">
<title>calculator2</title>
<path d="M23.75 23.625v-19.25c0-0.065-0.060-0.125-0.125-0.125h-19.25c-0.065 0-0.125 0.060-0.125 0.125v19.25c0 0.065 0.060 0.125 0.125 0.125h19.25c0.065 0 0.125-0.060 0.125-0.125zM23.625 3c0.756 0 1.375 0.618 1.375 1.375v19.25c0 0.756-0.619 1.375-1.375 1.375h-19.25c-0.756 0-1.375-0.619-1.375-1.375v-19.25c0-0.757 0.619-1.375 1.375-1.375h19.25zM15.375 11.063v-1h5.5v1h-5.5zM10.375 7.813v2.25h2.25v1h-2.25v2.25h-1v-2.25h-2.25v-1h2.25v-2.25h1zM11.466 15.14l0.707 0.707-1.591 1.591 1.591 1.591-0.707 0.707-1.591-1.591-1.591 1.591-0.707-0.707 1.591-1.591-1.591-1.591 0.707-0.707 1.591 1.591 1.591-1.591zM15.375 16.563v-1h5.5v1h-5.5zM15.375 19.313v-1h5.5v1h-5.5z"></path>
</svg>
