<!-- Generated by IcoMoon.io -->
<svg version="1.1" xmlns="http://www.w3.org/2000/svg" width="28" height="28" viewBox="0 0 28 28">
<title>calculator</title>
<path d="M9.322 11.647h9.997v-4.694h-9.997v4.694zM19.944 5.703c0.345 0 0.625 0.28 0.625 0.625v5.944c0 0.345-0.28 0.625-0.625 0.625h-11.247c-0.344 0-0.625-0.28-0.625-0.625v-5.944c0-0.345 0.281-0.625 0.625-0.625h11.247zM23.393 23.64v-19.278c0-0.613-0.499-1.112-1.111-1.112h-15.92c-0.613 0-1.112 0.499-1.112 1.112v19.278c0 0.612 0.498 1.11 1.111 1.11h15.921c0.612 0 1.111-0.498 1.111-1.11zM22.282 2c1.301 0 2.361 1.060 2.361 2.362v19.278c0 1.302-1.060 2.36-2.361 2.36h-15.921c-1.302 0-2.361-1.058-2.361-2.36v-19.278c0-1.302 1.060-2.362 2.362-2.362h15.92zM8.358 17.563v-2.193h2.199v2.193h-2.199zM8.325 22.241v-2.192h2.199v2.192h-2.199zM18.118 17.563v-2.193h2.199v2.193h-2.199zM18.085 22.241v-2.192h2.199v2.192h-2.199zM13.238 17.563v-2.193h2.199v2.193h-2.199zM13.204 22.241v-2.192h2.2v2.192h-2.2z"></path>
</svg>
