<!-- Generated by IcoMoon.io -->
<svg version="1.1" xmlns="http://www.w3.org/2000/svg" width="28" height="28" viewBox="0 0 28 28">
<title>calculation</title>
<path d="M16.077 10.154v-1.384h6.923v1.384h-6.923zM7.769 6h1.385v2.769h2.769v1.385h-2.769v2.769h-1.385v-2.769h-2.769v-1.385h2.769v-2.769zM16.077 18.462v-1.384h6.923v1.384h-6.923zM16.077 21.23v-1.384h6.923v1.384h-6.923zM8.462 17.65l1.958-1.958 0.978 0.98-1.958 1.958 1.958 1.958-0.978 0.979-1.958-1.959-1.959 1.959-0.979-0.979 1.958-1.958-1.958-1.958 0.979-0.98 1.959 1.958z"></path>
</svg>
