<!-- Generated by IcoMoon.io -->
<svg version="1.1" xmlns="http://www.w3.org/2000/svg" width="28" height="28" viewBox="0 0 28 28">
<title>calendar</title>
<path d="M19 15v-2h2v2h-2zM19 20v-2h2v2h-2zM7 15v-2h2v2h-2zM7 20v-2h2v2h-2zM13 15v-2h2v2h-2zM13 20v-2h2v2h-2zM24.75 9.4v-2.65h-6.125v1.25h-1.25v-1.25h-6.75v1.25h-1.25v-1.25h-6.125v2.65h21.5zM3.25 22.75h21.5v-12.15h-21.5v12.15zM26 9.4v13.641c0 0.529-0.43 0.959-0.959 0.959h-22.083c-0.529 0-0.958-0.43-0.958-0.959v-16.583c0-0.53 0.429-0.958 0.958-0.958h6.417v-1.5h1.25v1.5h6.75v-1.5h1.25v1.5h6.416c0.529 0 0.959 0.428 0.959 0.958v2.942z"></path>
</svg>
