<!-- Generated by IcoMoon.io -->
<svg version="1.1" xmlns="http://www.w3.org/2000/svg" width="28" height="28" viewBox="0 0 28 28">
<title>call_solid</title>
<path d="M5.123 4.222c-0.538 4.867 0.697 9.719 3.516 13.743 2.819 4.027 6.955 6.847 11.713 8.005 0.487 0.118 1.026-0.116 1.479-0.613l1.794-2.092c0.368-0.429 0.347-1.066-0.049-1.47l-3.597-3.664c-0.373-0.381-0.964-0.434-1.401-0.13l-2.86 2.003c-0.199 0.14-0.459 0.125-0.643-0.016-1.092-0.89-2.766-2.391-3.801-3.869-1.034-1.477-1.872-3.563-2.334-4.892-0.070-0.222 0.004-0.471 0.204-0.61l2.861-2.003c0.435-0.306 0.588-0.88 0.358-1.361l-2.214-4.634c-0.243-0.509-0.836-0.748-1.365-0.548l-2.579 0.97c-0.621 0.256-1.026 0.683-1.082 1.181z"></path>
</svg>
