<!-- Generated by IcoMoon.io -->
<svg version="1.1" xmlns="http://www.w3.org/2000/svg" width="28" height="28" viewBox="0 0 28 28">
<title>call</title>
<path d="M22.87 21.517l-1.624 2.011c-0.302 0.35-0.645 0.525-0.922 0.463-4.512-0.878-8.547-3.315-11.364-6.861-2.812-3.537-4.205-7.929-3.924-12.367 0.019-0.265 0.277-0.533 0.68-0.714l2.439-1.005c0.264-0.108 0.578-0.002 0.714 0.243l2.35 4.245c0.121 0.22 0.061 0.491-0.142 0.643l-2.663 1.979c-0.363 0.27-0.499 0.735-0.332 1.171 0.451 1.090 1.383 3.138 2.549 4.604 1.167 1.47 2.97 2.865 3.951 3.572 0.365 0.251 0.849 0.244 1.202-0.019l2.662-1.98c0.212-0.159 0.521-0.143 0.723 0.038l3.637 3.29c0.204 0.183 0.23 0.48 0.064 0.687zM23.476 20.087l-3.637-3.289c-0.555-0.502-1.392-0.544-1.99-0.098l-2.691 1.984c-0.749-0.54-2.611-1.949-3.744-3.377-1.131-1.422-2.061-3.526-2.404-4.351l2.664-1.979c0.609-0.455 0.786-1.266 0.42-1.929l-2.35-4.245c-0.382-0.694-1.23-0.988-1.969-0.683l-2.454 1.011c-0.771 0.345-1.239 0.916-1.283 1.567v0.002c-0.298 4.685 1.173 9.321 4.139 13.053 2.964 3.732 7.211 6.295 11.956 7.22 0.099 0.019 0.2 0.028 0.3 0.028 0.554 0 1.114-0.29 1.581-0.833l1.634-2.024c0.496-0.617 0.421-1.521-0.172-2.057z"></path>
</svg>
