<!-- Generated by IcoMoon.io -->
<svg version="1.1" xmlns="http://www.w3.org/2000/svg" width="28" height="28" viewBox="0 0 28 28">
<title>card_sale</title>
<path d="M19.5 16.75c2.895 0 5.25-2.355 5.25-5.25 0-2.896-2.355-5.25-5.25-5.25-2.896 0-5.25 2.354-5.25 5.25 0 2.895 2.354 5.25 5.25 5.25zM22.75 22v-4.877c-0.957 0.554-2.065 0.877-3.25 0.877-1.842 0-3.501-0.77-4.684-2h-11.566v6c0 0.413 0.336 0.75 0.75 0.75h18c0.413 0 0.75-0.337 0.75-0.75zM3.25 10v3h9.931c-0.115-0.482-0.181-0.983-0.181-1.5 0-0.792 0.148-1.548 0.408-2.25h-9.408c-0.414 0-0.75 0.336-0.75 0.75zM19.5 5c3.59 0 6.5 2.91 6.5 6.5 0 1.842-0.77 3.501-2 4.684v5.816c0 1.104-0.896 2-2 2h-18c-1.104 0-2-0.896-2-2v-12c0-1.104 0.896-2 2-2h10.028c1.156-1.803 3.172-3 5.472-3zM16.499 12.125v-1.25h6v1.25h-6z"></path>
</svg>
