<!-- Generated by IcoMoon.io -->
<svg version="1.1" xmlns="http://www.w3.org/2000/svg" width="28" height="28" viewBox="0 0 28 28">
<title>cash_payment</title>
<path d="M14 24.75c5.927 0 10.75-4.822 10.75-10.75s-4.823-10.75-10.75-10.75c-5.928 0-10.75 4.822-10.75 10.75s4.822 10.75 10.75 10.75zM14 2c6.627 0 12 5.373 12 12s-5.373 12-12 12c-6.628 0-12-5.373-12-12s5.372-12 12-12zM16.423 16.74l0.624-2.568h-1.308l0.613 2.568h0.071zM13.627 13.116h0.672l-0.3-1.368h-0.072l-0.3 1.368zM11.6 16.728l0.611-2.556h-1.296l0.612 2.556h0.073zM19.363 9.876l-0.816 3.24h1.452v1.056h-1.704l-1.176 4.692h-1.488l-1.080-4.692h-1.164l-1.079 4.692h-1.489l-1.164-4.692h-1.668v-1.056h1.416l-0.803-3.24h1.283l0.78 3.24h1.777l0.767-3.24h1.525l0.767 3.24h1.788l0.781-3.24h1.295z"></path>
</svg>
