<!-- Generated by IcoMoon.io -->
<svg version="1.1" xmlns="http://www.w3.org/2000/svg" width="28" height="28" viewBox="0 0 28 28">
<title>catalogue</title>
<path d="M23.75 21.601h-7.675c-0.513 0-1.009 0.145-1.45 0.394v-14.93c0.322-0.5 0.859-0.815 1.45-0.815h7.675v15.351zM11.925 21.601h-7.675v-15.351h7.675c0.591 0 1.128 0.315 1.45 0.815v14.93c-0.441-0.249-0.937-0.394-1.45-0.394v0zM24.375 5h-8.3c-0.785 0-1.525 0.312-2.075 0.847-0.55-0.535-1.29-0.847-2.075-0.847h-8.3c-0.345 0-0.625 0.281-0.625 0.625v16.601c0 0.345 0.28 0.625 0.625 0.625h8.3c0.503 0 0.968 0.215 1.307 0.604 0.12 0.135 0.29 0.213 0.471 0.213h0.594c0.181 0 0.351-0.078 0.471-0.213 0.339-0.389 0.804-0.604 1.307-0.604h8.3c0.345 0 0.625-0.28 0.625-0.625v-16.601c0-0.344-0.28-0.625-0.625-0.625v0z"></path>
</svg>
