<!-- Generated by IcoMoon.io -->
<svg version="1.1" xmlns="http://www.w3.org/2000/svg" width="28" height="28" viewBox="0 0 28 28">
<title>clear</title>
<path fill="#d9d9d9" d="M17.142 16.2c0.26 0.26 0.26 0.683 0 0.943s-0.683 0.26-0.943 0l-2.199-2.2-2.2 2.2c-0.26 0.26-0.682 0.26-0.942 0s-0.26-0.683 0-0.943l2.199-2.2-2.199-2.199c-0.26-0.26-0.26-0.683 0-0.943s0.682-0.26 0.942 0l2.2 2.2 2.199-2.2c0.26-0.26 0.683-0.26 0.943 0s0.26 0.683 0 0.943l-2.2 2.199 2.2 2.2zM14 6c-4.419 0-8 3.582-8 8s3.581 8 8 8 8-3.581 8-8c0-4.418-3.581-8-8-8v0z"></path>
</svg>
