<!-- Generated by IcoMoon.io -->
<svg version="1.1" xmlns="http://www.w3.org/2000/svg" width="28" height="28" viewBox="0 0 28 28">
<title>create</title>
<path d="M20.148 23.989v-9.155h1.254v9.782c0 0.346-0.281 0.627-0.627 0.627h-17.148c-0.346 0-0.627-0.281-0.627-0.627v-18.090c0-0.346 0.281-0.627 0.627-0.627h10.787v1.254h-10.161v16.836h15.895zM23.818 6.542c0.014-0.014 0.179-0.181 0.182-0.401 0.003-0.237-0.185-0.475-0.343-0.634l-0.485-0.485-0.019-0.018 0.001-0.001c-0.016-0.018-0.031-0.037-0.045-0.057-0.12-0.106-0.251-0.236-0.398-0.383-0.207-0.208-0.39-0.344-0.574-0.31-0.23 0.004-0.411 0.192-0.413 0.194l-10.624 10.623-0.483 2.578 2.578-0.483 10.602-10.602c0.006-0.007 0.014-0.014 0.021-0.021zM24.544 4.621c0.488 0.489 0.726 1.018 0.709 1.569-0.023 0.704-0.467 1.163-0.579 1.268l-10.73 10.73c-0.090 0.089-0.204 0.15-0.328 0.173l-3.668 0.689c-0.038 0.007-0.077 0.011-0.115 0.011-0.165 0-0.325-0.066-0.444-0.184-0.146-0.147-0.211-0.356-0.173-0.559l0.688-3.669c0.023-0.124 0.084-0.238 0.173-0.328l10.74-10.739c0.025-0.030 0.511-0.558 1.272-0.581 0.38-0.017 0.928 0.096 1.508 0.675l0.443 0.442 0.008 0.009 0.016 0.016-0.001 0.001c0.018 0.018 0.033 0.039 0.048 0.059 0.127 0.113 0.269 0.254 0.433 0.418z"></path>
</svg>
