<!-- Generated by IcoMoon.io -->
<svg version="1.1" xmlns="http://www.w3.org/2000/svg" width="28" height="28" viewBox="0 0 28 28">
<title>cs</title>
<path d="M21.613 19.495v-9.449c1.778 0.38 3.137 2.353 3.137 4.724s-1.359 4.345-3.137 4.725v0zM6.386 19.495c-1.778-0.38-3.136-2.354-3.136-4.725s1.358-4.344 3.136-4.724v9.449zM22.603 9.057c-1.235-3.521-4.582-6.057-8.519-6.057-3.909 0-7.236 2.499-8.492 5.98-2.075 0.741-3.592 3.054-3.592 5.79 0 3.331 2.248 6.041 5.011 6.041 0.345 0 0.625-0.28 0.625-0.625v-10.832c0-0.327-0.254-0.588-0.574-0.614 1.246-2.643 3.91-4.49 7.022-4.49 3.109 0 5.773 1.845 7.020 4.486-0.039-0.001-0.077-0.007-0.116-0.007-0.345 0-0.625 0.281-0.625 0.625v10.832c0 0.315 0.236 0.564 0.538 0.608-0.238 0.861-0.747 2.063-1.558 2.063h-5.337c-0.345 0-0.625 0.281-0.625 0.625 0 0.345 0.28 0.625 0.625 0.625h5.337c2.002 0 2.715-2.662 2.888-3.491 2.163-0.669 3.769-3.032 3.769-5.846 0-2.649-1.424-4.9-3.397-5.713v0z"></path>
</svg>
