<!-- Generated by IcoMoon.io -->
<svg version="1.1" xmlns="http://www.w3.org/2000/svg" width="28" height="28" viewBox="0 0 28 28">
<title>dealday</title>
<path d="M22.579 22.392v-14.123c0-0.887-0.722-1.608-1.608-1.608h-14.123c-0.888 0-1.61 0.721-1.61 1.608v14.123c0 0.887 0.722 1.608 1.61 1.608h14.123c0.886 0 1.608-0.721 1.608-1.608zM20.971 5.422c1.569 0 2.846 1.278 2.846 2.847v14.123c0 1.569-1.277 2.847-2.846 2.847h-14.123c-1.571 0-2.848-1.278-2.848-2.847v-14.123c0-1.569 1.277-2.847 2.848-2.847h1.497v-1.802c0-0.342 0.277-0.62 0.619-0.62s0.619 0.278 0.619 0.62v1.802h8.652v-1.802c0-0.342 0.278-0.62 0.619-0.62s0.62 0.278 0.62 0.62v1.802h1.497zM14.582 10.281c2.628 0.399 3.941 2.057 3.941 4.971 0 1.351-0.299 2.456-0.899 3.312-0.705 1.029-1.771 1.643-3.199 1.842-0.258 0.039-0.543 0.058-0.858 0.058-0.761 0-1.142-0.267-1.142-0.8 0-0.524 0.362-0.785 1.086-0.785 0.904 0 1.587-0.292 2.049-0.879s0.693-1.488 0.693-2.706c0-1.048-0.193-1.85-0.579-2.408-0.385-0.556-0.969-0.901-1.749-1.034-0.257-0.048-0.671-0.071-1.243-0.071h-0.572v7.711c0 0.572-0.27 0.9-0.814 0.986-0.075 0.011-0.142 0.014-0.199 0.014-0.314 0-0.564-0.090-0.75-0.271-0.185-0.18-0.279-0.423-0.279-0.729v-9.326h2.671c0.494 0 0.971 0.025 1.428 0.072 0.162 0.010 0.3 0.023 0.415 0.043z"></path>
</svg>
