<!-- Generated by IcoMoon.io -->
<svg version="1.1" xmlns="http://www.w3.org/2000/svg" width="28" height="28" viewBox="0 0 28 28">
<title>delete</title>
<path d="M21.189 23.494v-16.168h-14.377v16.168c0 0.509 0.414 0.924 0.923 0.924h12.531c0.509 0 0.923-0.415 0.923-0.924zM14 4.25c-1.204 0-2.225 0.758-2.633 1.818h5.265c-0.408-1.060-1.429-1.818-2.632-1.818zM22.438 6.076h1.562v1.25h-1.562v16.168c0 1.2-0.974 2.174-2.173 2.174h-12.531c-1.199 0-2.173-0.974-2.173-2.174v-16.168h-1.561v-1.25h1.561v-0.008h4.502c0.453-1.759 2.038-3.068 3.937-3.068s3.483 1.309 3.936 3.068h4.502v0.008zM9.441 21.342v-10.15h1.25v10.15h-1.25zM13.375 21.342v-10.15h1.25v10.15h-1.25zM17.309 21.342v-10.15h1.25v10.15h-1.25z"></path>
</svg>
