<!-- Generated by IcoMoon.io -->
<svg version="1.1" xmlns="http://www.w3.org/2000/svg" width="28" height="28" viewBox="0 0 28 28">
<title>delivery</title>
<path d="M24.75 20.166h-1.119c-0.419-0.915-1.339-1.557-2.411-1.557s-1.991 0.642-2.411 1.557h-1.476v-9.583h4.87c0.067 0.001 0.206 0.086 0.236 0.145l2.131 4.102c0.091 0.175 0.18 0.538 0.18 0.734v4.602zM21.22 22.671c-0.776 0-1.407-0.631-1.407-1.406s0.631-1.406 1.407-1.406c0.775 0 1.406 0.631 1.406 1.406s-0.631 1.406-1.406 1.406v0zM16.083 10.5v9.666h-6.535c-0.419-0.915-1.339-1.557-2.411-1.557s-1.991 0.642-2.411 1.557h-1.476v-13.916h12.833v4.25zM7.137 22.671c-0.776 0-1.407-0.631-1.407-1.406s0.631-1.406 1.407-1.406c0.775 0 1.406 0.631 1.406 1.406s-0.631 1.406-1.406 1.406v0zM25.68 14.254l-2.131-4.103c-0.247-0.474-0.813-0.818-1.346-0.818h-4.87v-3.166c0-0.644-0.523-1.167-1.167-1.167h-13c-0.643 0-1.166 0.523-1.166 1.167v14.082c0 0.644 0.523 1.167 1.166 1.167h1.33c0.080 1.394 1.228 2.505 2.641 2.505s2.56-1.111 2.641-2.505h6.388c0.199 0 0.378-0.063 0.542-0.15 0.164 0.087 0.343 0.15 0.541 0.15h1.33c0.080 1.394 1.228 2.505 2.641 2.505s2.56-1.111 2.641-2.505h0.972c0.644 0 1.167-0.523 1.167-1.167v-4.685c0-0.396-0.138-0.96-0.32-1.31v0z"></path>
</svg>
