<!-- Generated by IcoMoon.io -->
<svg version="1.1" xmlns="http://www.w3.org/2000/svg" width="28" height="28" viewBox="0 0 28 28">
<title>description</title>
<path d="M5 3h14.279l4.054 4.041v17.959h-18.333v-22zM6.25 4.249v19.5h15.833v-16.189l-3.321-3.311h-12.512zM8.541 9.090c0-0.345 0.28-0.625 0.625-0.625h10c0.345 0 0.625 0.28 0.625 0.625s-0.28 0.625-0.625 0.625h-10c-0.345 0-0.625-0.28-0.625-0.625zM19.166 13.375c0.345 0 0.625 0.28 0.625 0.625s-0.28 0.625-0.625 0.625h-10c-0.345 0-0.625-0.28-0.625-0.625s0.28-0.625 0.625-0.625h10zM19.166 18.285c0.345 0 0.625 0.28 0.625 0.625s-0.28 0.625-0.625 0.625h-10c-0.345 0-0.625-0.28-0.625-0.625s0.28-0.625 0.625-0.625h10z"></path>
</svg>
