<!-- Generated by IcoMoon.io -->
<svg version="1.1" xmlns="http://www.w3.org/2000/svg" width="28" height="28" viewBox="0 0 28 28">
<title>discount_rate</title>
<path d="M14 24.615c5.854 0 10.616-4.762 10.616-10.615s-4.762-10.615-10.616-10.615c-5.853 0-10.615 4.761-10.615 10.615s4.762 10.615 10.615 10.615zM14 2c6.628 0 12 5.373 12 12s-5.372 12-12 12c-6.627 0-12-5.373-12-12s5.373-12 12-12zM6.615 14.692v-1.385h14.77v1.385h-14.77zM14 10.885c-0.828 0-1.5-0.672-1.5-1.5s0.672-1.5 1.5-1.5c0.829 0 1.5 0.672 1.5 1.5s-0.671 1.5-1.5 1.5zM14 17c0.829 0 1.5 0.672 1.5 1.5s-0.671 1.5-1.5 1.5c-0.828 0-1.5-0.672-1.5-1.5s0.672-1.5 1.5-1.5z"></path>
</svg>
