<!-- Generated by IcoMoon.io -->
<svg version="1.1" xmlns="http://www.w3.org/2000/svg" width="28" height="28" viewBox="0 0 28 28">
<title>edit</title>
<path d="M23.385 22.729c1.522-1.522 1.522-4.001 0-5.523-0.738-0.739-1.719-1.145-2.763-1.145s-2.024 0.406-2.762 1.145c-1.523 1.522-1.523 4.001 0 5.523 0.738 0.738 1.718 1.145 2.762 1.145s2.025-0.407 2.763-1.145zM15.783 17.854l0.297 0.297c0.236-0.602 0.586-1.166 1.073-1.652 0.377-0.377 0.809-0.659 1.26-0.887h-0.003l-0.201-0.201-2.426 2.443zM7.39 24.885l11.395-11.473c0 0.001 0.002 0.001 0.002 0.001-0.451-0.229-0.882-0.51-1.259-0.887-0.487-0.486-0.838-1.052-1.073-1.652l-12.728 12.727c-0.373 0.372-0.402 0.771-0.305 1.021 0.067 0.17 0.227 0.375 0.608 0.401l3.36-0.138zM3.353 5.422l8.569 8.57 2.448-2.449-7.354-7.405-3.36-0.138c-0.382 0.028-0.541 0.233-0.607 0.403-0.098 0.249-0.068 0.647 0.304 1.019zM18.235 6.294c-1.524 1.523-1.524 4.001 0 5.525 0.737 0.738 1.718 1.144 2.761 1.144s2.025-0.406 2.762-1.144c1.523-1.524 1.523-4.002 0-5.525-0.737-0.737-1.719-1.143-2.762-1.143s-2.024 0.406-2.761 1.143zM20.622 15.061c1.255 0 2.511 0.479 3.47 1.438 1.916 1.916 1.916 5.021 0 6.937-0.959 0.959-2.215 1.438-3.47 1.438s-2.51-0.479-3.469-1.438c-1.137-1.137-1.582-2.693-1.37-4.172v0.003l-0.717-0.691-7.244 7.294-3.798 0.154c-1.618-0.066-2.224-1.91-1.004-3.13l8.195-8.195-8.569-8.57c-1.22-1.218-0.614-3.064 1.005-3.129l3.798 0.155 7.628 7.681 1.079-1.080c0 0.002 0.001 0.002 0.001 0.003-0.213-1.478 0.232-3.034 1.371-4.172 0.957-0.958 2.212-1.436 3.468-1.436s2.512 0.478 3.469 1.436c1.916 1.916 1.916 5.023 0 6.939-0.957 0.958-2.213 1.437-3.469 1.437-0.406 0-0.809-0.069-1.207-0.17 0.008 0.002 0.014 0.004 0.020 0.006l-0.895 0.903 0.521 0.523c0.39-0.098 0.787-0.164 1.187-0.164zM15.090 13.723c0.553 0 1 0.447 1 1 0 0.552-0.447 1-1 1s-1-0.448-1-1c0-0.553 0.447-1 1-1z"></path>
</svg>
