<!-- Generated by IcoMoon.io -->
<svg version="1.1" xmlns="http://www.w3.org/2000/svg" width="28" height="28" viewBox="0 0 28 28">
<title>error</title>
<path d="M14 24.999c6.065 0 11-4.934 11-11 0-6.064-4.935-11-11-11s-11 4.936-11 11c0 6.066 4.935 11 11 11zM14 2c6.628 0 12 5.373 12 12s-5.372 12-12 12-12-5.372-12-12c0-6.627 5.372-12 12-12zM13.999 18.050c0.324 0 0.604 0.116 0.838 0.351 0.234 0.234 0.351 0.512 0.351 0.836 0 0.325-0.117 0.604-0.351 0.837-0.234 0.235-0.514 0.352-0.838 0.352s-0.602-0.117-0.836-0.352c-0.234-0.233-0.351-0.512-0.351-0.837s0.117-0.602 0.351-0.836c0.234-0.235 0.512-0.351 0.836-0.351zM13.098 16.646v-9.072h1.729v9.072h-1.729z"></path>
</svg>
