<!-- Generated by IcoMoon.io -->
<svg version="1.1" xmlns="http://www.w3.org/2000/svg" width="28" height="28" viewBox="0 0 28 28">
<title>error_solid</title>
<path d="M14.836 19.507c-0.233 0.234-0.513 0.352-0.837 0.352s-0.602-0.118-0.837-0.352c-0.234-0.233-0.35-0.513-0.35-0.837s0.116-0.602 0.35-0.837c0.235-0.234 0.513-0.35 0.837-0.35s0.604 0.116 0.837 0.35c0.234 0.235 0.352 0.513 0.352 0.837s-0.118 0.604-0.352 0.837v0zM13.099 16.077v-9.072h1.729v9.072h-1.729zM14 2c-6.627 0-12 5.373-12 12s5.373 12 12 12c6.628 0 12-5.372 12-12s-5.372-12-12-12v0z"></path>
</svg>
