<!-- Generated by IcoMoon.io -->
<svg version="1.1" xmlns="http://www.w3.org/2000/svg" width="28" height="28" viewBox="0 0 28 28">
<title>exchange</title>
<path d="M14.772 4.008c5.184 0.382 9.287 4.712 9.287 9.992 0 4.332-2.761 8.159-6.87 9.523-0.059 0.019-0.118 0.028-0.176 0.028-0.233 0-0.451-0.147-0.528-0.381-0.098-0.292 0.060-0.607 0.352-0.704 3.654-1.212 6.109-4.614 6.109-8.466 0-4.638-3.561-8.457-8.091-8.875l0.922 0.983c0.21 0.223 0.199 0.576-0.026 0.787-0.107 0.1-0.244 0.15-0.38 0.15-0.149 0-0.297-0.058-0.407-0.176l-1.845-1.966c-0.201-0.214-0.201-0.548 0-0.762l1.845-1.966c0.211-0.225 0.565-0.234 0.787-0.025 0.225 0.211 0.236 0.563 0.026 0.787l-1.005 1.071zM13.067 21.143l1.846 1.967c0.201 0.214 0.201 0.548 0 0.762l-1.846 1.965c-0.109 0.118-0.258 0.176-0.406 0.176-0.137 0-0.274-0.050-0.381-0.15-0.225-0.211-0.235-0.564-0.025-0.787l1.016-1.083c-5.176-0.39-9.271-4.716-9.271-9.993 0-4.303 2.736-8.123 6.81-9.502 0.29-0.1 0.608 0.057 0.706 0.349 0.099 0.291-0.057 0.608-0.348 0.706-3.622 1.227-6.055 4.621-6.055 8.447 0 4.625 3.539 8.437 8.051 8.873l-0.909-0.968c-0.21-0.224-0.2-0.576 0.025-0.787 0.225-0.209 0.577-0.2 0.787 0.025zM11.020 10.756l-0.588 1.375 3.122-0.002v-1.375l-2.534 0.002zM17.752 12.127l-0.764-1.376-2.32 0.002v1.376l3.084-0.002zM10.146 17.922h7.995v-4.682l-7.995 0.004v4.678zM9.034 18.203v-5.244c0-0.066 0.015-0.148 0.025-0.225-0.001-0.016-0.009-0.030-0.009-0.046 0-0.095 0.030-0.18 0.072-0.258 0.021-0.077 0.040-0.16 0.067-0.223l0.844-1.972c0.145-0.343 0.523-0.592 0.896-0.592h6.113c0.357 0 0.725 0.217 0.897 0.527l1.113 2.001c0.12 0.219 0.203 0.542 0.203 0.788v5.244c0 0.459-0.373 0.832-0.833 0.832h-8.555c-0.46 0-0.833-0.373-0.833-0.832z"></path>
</svg>
