<!-- Generated by IcoMoon.io -->
<svg version="1.1" xmlns="http://www.w3.org/2000/svg" width="28" height="28" viewBox="0 0 28 28">
<title>facebook</title>
<path d="M22.897 4h-17.793c-0.609 0-1.103 0.494-1.103 1.104v17.792c0 0.61 0.494 1.104 1.103 1.104h9.579v-7.745h-2.606v-3.019h2.606v-2.225c0-2.583 1.577-3.99 3.882-3.99 1.103 0 2.053 0.082 2.329 0.119v2.699l-1.599 0.001c-1.252 0-1.495 0.596-1.495 1.47v1.926h2.989l-0.389 3.019h-2.6v7.745h5.097c0.609 0 1.104-0.494 1.104-1.104v-17.792c0-0.61-0.495-1.104-1.104-1.104z"></path>
</svg>
