<!-- Generated by IcoMoon.io -->
<svg version="1.1" xmlns="http://www.w3.org/2000/svg" width="28" height="28" viewBox="0 0 28 28">
<title>filter_list</title>
<path d="M21.778 6.924c-0.027-0.003-0.051-0.016-0.078-0.016h-15.541l-2.204-2.658h20.040l-2.217 2.674zM16.039 13.846c-0.093 0.111-0.144 0.253-0.144 0.398v6.871l-3.841 2.186v-9.057c0-0.145-0.050-0.287-0.143-0.398l-4.716-5.688h13.56l-4.716 5.688zM25.89 3.36c-0.102-0.22-0.323-0.36-0.565-0.36h-22.7c-0.243 0-0.463 0.14-0.566 0.36-0.103 0.218-0.070 0.478 0.084 0.664l8.661 10.446v9.905c0 0.223 0.119 0.429 0.311 0.54 0.098 0.057 0.206 0.085 0.314 0.085s0.213-0.027 0.309-0.082l5.091-2.896c0.195-0.112 0.316-0.319 0.316-0.543v-7.009l8.661-10.446c0.155-0.186 0.188-0.446 0.084-0.664v0z"></path>
</svg>
