<!-- Generated by IcoMoon.io -->
<svg version="1.1" xmlns="http://www.w3.org/2000/svg" width="28" height="28" viewBox="0 0 28 28">
<title>gift</title>
<path d="M22.087 22.432c0 0.863-0.703 1.566-1.566 1.566h-6.272v-15.391l0.024 0.005-0.024-0.067v-0.090h6.272c0.863 0 1.566 0.704 1.566 1.567v12.41zM15.882 4.705c0.143-0.179 0.466-0.501 0.923-0.501 0.192 0 0.408 0.057 0.644 0.205 0.279 0.173 0.449 0.401 0.505 0.678 0.065 0.315-0.020 0.688-0.211 0.962-0.236 0.251-1.51 0.658-2.843 0.981 0.399-1.094 0.815-2.117 0.982-2.325v0zM13.044 23.998h-6.272c-0.864 0-1.567-0.703-1.567-1.566v-12.41c0-0.863 0.703-1.567 1.567-1.567h6.272v15.543zM9.833 4.424c0.235-0.15 0.452-0.208 0.646-0.208 0.476 0 0.809 0.346 0.924 0.487 0.169 0.205 0.598 1.223 1.011 2.311-1.337-0.305-2.614-0.693-2.846-0.932-0.204-0.284-0.293-0.657-0.232-0.971 0.053-0.279 0.221-0.509 0.497-0.687v0zM20.521 7.25h-2.455c0.296-0.157 0.534-0.322 0.656-0.497 0.389-0.557 0.544-1.271 0.414-1.908-0.124-0.605-0.487-1.11-1.049-1.46-1.242-0.776-2.474-0.273-3.146 0.566-0.345 0.429-0.917 1.939-1.279 2.954-0.375-1.010-0.973-2.538-1.327-2.968-0.682-0.83-1.922-1.318-3.152-0.528-0.559 0.358-0.915 0.868-1.032 1.474-0.122 0.639 0.041 1.35 0.437 1.903 0.118 0.164 0.345 0.318 0.621 0.464h-2.437c-1.529 0-2.772 1.244-2.772 2.772v12.41c0 1.528 1.243 2.771 2.772 2.771h13.749c1.528 0 2.771-1.243 2.771-2.771v-12.41c0-1.528-1.243-2.772-2.771-2.772v0z"></path>
</svg>
