<!-- Generated by IcoMoon.io -->
<svg version="1.1" xmlns="http://www.w3.org/2000/svg" width="28" height="28" viewBox="0 0 28 28">
<title>google</title>
<path d="M23.814 12.182h-9.61v3.868h5.492c-0.237 1.25-0.956 2.309-2.036 3.018-0.914 0.6-2.083 0.954-3.455 0.954-2.658 0-4.908-1.759-5.71-4.123-0.204-0.6-0.32-1.241-0.32-1.9s0.115-1.3 0.32-1.9c0.802-2.364 3.052-4.123 5.71-4.123 1.498 0 2.843 0.504 3.901 1.496l2.927-2.868c-1.767-1.614-4.077-2.605-6.827-2.605-3.989 0-7.439 2.241-9.119 5.509-0.691 1.35-1.085 2.877-1.085 4.491s0.394 3.141 1.085 4.491c1.679 3.268 5.129 5.509 9.119 5.509 2.755 0 5.065-0.895 6.753-2.422 1.929-1.741 3.043-4.304 3.043-7.35 0-0.709-0.065-1.391-0.186-2.046z"></path>
</svg>
