<!-- Generated by IcoMoon.io -->
<svg version="1.1" xmlns="http://www.w3.org/2000/svg" width="28" height="28" viewBox="0 0 28 28">
<title>help_solid</title>
<path d="M17.581 11.939c-0.132 0.342-0.317 0.663-0.558 0.963l-1.080 1.116-0.179 0.162c-0.193 0.18-0.346 0.333-0.459 0.459-0.115 0.126-0.204 0.258-0.271 0.396-0.065 0.138-0.11 0.291-0.135 0.459-0.024 0.169-0.036 0.378-0.036 0.63v0.792h-1.727v-1.098c0-0.324 0.023-0.594 0.071-0.81s0.12-0.411 0.217-0.585c0.095-0.173 0.224-0.342 0.386-0.504s0.363-0.357 0.603-0.585c0.192-0.18 0.385-0.363 0.576-0.549 0.193-0.186 0.366-0.378 0.523-0.576 0.155-0.198 0.284-0.408 0.386-0.63s0.154-0.471 0.154-0.747c0-0.276-0.052-0.531-0.154-0.765s-0.237-0.435-0.405-0.603c-0.168-0.168-0.369-0.299-0.602-0.396-0.235-0.096-0.484-0.144-0.748-0.144-0.587 0-1.065 0.186-1.43 0.558-0.366 0.372-0.585 0.858-0.657 1.458l-1.836-0.18c0.155-1.044 0.59-1.863 1.304-2.457s1.599-0.891 2.656-0.891c0.504 0 0.974 0.075 1.413 0.225 0.437 0.151 0.818 0.366 1.142 0.648s0.579 0.63 0.765 1.044 0.279 0.885 0.279 1.413c0 0.456-0.066 0.855-0.198 1.197zM14.818 20.237c-0.234 0.234-0.512 0.351-0.837 0.351s-0.602-0.117-0.837-0.351c-0.234-0.234-0.35-0.513-0.35-0.837s0.116-0.603 0.35-0.837c0.235-0.234 0.513-0.351 0.837-0.351 0.325 0 0.603 0.117 0.837 0.351 0.235 0.234 0.352 0.513 0.352 0.837s-0.117 0.603-0.352 0.837zM14 2c-6.628 0-12 5.373-12 12s5.372 12 12 12c6.627 0 12-5.373 12-12s-5.373-12-12-12z"></path>
</svg>
