<!-- Generated by IcoMoon.io -->
<svg version="1.1" xmlns="http://www.w3.org/2000/svg" width="28" height="28" viewBox="0 0 28 28">
<title>help</title>
<path d="M16.736 8.285c0.324 0.281 0.578 0.629 0.764 1.043s0.279 0.887 0.279 1.414c0 0.455-0.066 0.856-0.197 1.197-0.133 0.342-0.319 0.662-0.559 0.963l-1.080 1.115-0.18 0.163c-0.191 0.179-0.345 0.334-0.459 0.459-0.113 0.126-0.203 0.257-0.269 0.396s-0.111 0.291-0.135 0.459c-0.025 0.168-0.037 0.377-0.037 0.629v0.793h-1.727v-1.098c0-0.324 0.024-0.594 0.071-0.81 0.049-0.217 0.121-0.411 0.216-0.584 0.096-0.174 0.225-0.344 0.387-0.504 0.162-0.162 0.363-0.358 0.604-0.586 0.191-0.18 0.385-0.363 0.576-0.549s0.365-0.379 0.521-0.576c0.157-0.197 0.286-0.408 0.387-0.631 0.102-0.221 0.154-0.471 0.154-0.746 0-0.276-0.052-0.531-0.154-0.766-0.101-0.234-0.236-0.433-0.404-0.601s-0.369-0.301-0.604-0.397c-0.234-0.096-0.482-0.144-0.746-0.144-0.588 0-1.066 0.185-1.431 0.558-0.366 0.371-0.584 0.858-0.657 1.457l-1.836-0.179c0.155-1.043 0.59-1.864 1.305-2.457 0.713-0.594 1.598-0.891 2.654-0.891 0.504 0 0.975 0.074 1.414 0.225 0.438 0.15 0.819 0.367 1.143 0.648zM13.982 18.213c0.324 0 0.602 0.115 0.836 0.35s0.351 0.513 0.351 0.837c0 0.325-0.117 0.604-0.351 0.836-0.234 0.235-0.512 0.352-0.836 0.352s-0.604-0.117-0.838-0.352c-0.234-0.232-0.349-0.511-0.349-0.836 0-0.324 0.115-0.603 0.349-0.837 0.234-0.235 0.514-0.35 0.838-0.35zM14 25c6.065 0 11-4.935 11-11s-4.935-11-11-11c-6.065 0-11 4.935-11 11s4.935 11 11 11zM14 2c6.627 0 12 5.373 12 12s-5.373 12-12 12c-6.627 0-12-5.373-12-12s5.373-12 12-12z"></path>
</svg>
