<!-- Generated by IcoMoon.io -->
<svg version="1.1" xmlns="http://www.w3.org/2000/svg" width="28" height="28" viewBox="0 0 28 28">
<title>home</title>
<path d="M24 24h-6.5v-5.494c0-1.966-1.57-3.565-3.5-3.565s-3.5 1.599-3.5 3.565v5.49l-6.5-0.021 0.009-10.209 9.991-9.759 10 9.786v10.207zM24.689 13.050l-10-9.767c-0.193-0.188-0.441-0.283-0.689-0.283s-0.496 0.095-0.689 0.283l-10 9.767c-0.199 0.194-0.311 0.462-0.311 0.743v10.182c0 0.566 0.447 1.025 1 1.025h7.5v-6.494c0-1.416 1.119-2.565 2.5-2.565s2.5 1.149 2.5 2.565v6.494h7.5c0.553 0 1-0.459 1-1.025v-10.182c0-0.281-0.112-0.549-0.311-0.743v0z"></path>
</svg>
