<!-- Generated by IcoMoon.io -->
<svg version="1.1" xmlns="http://www.w3.org/2000/svg" width="28" height="28" viewBox="0 0 28 28">
<title>inbox</title>
<path d="M24.75 22.75h-21.5v-10.125h6.859c0.303 2.013 2.044 3.562 4.14 3.562s3.838-1.549 4.141-3.562h6.36v10.125zM6.726 6.25h14.548l2.929 5.125h-6.391c-0.345 0-0.625 0.28-0.625 0.625 0 1.619-1.318 2.937-2.938 2.937-1.619 0-2.937-1.318-2.937-2.937 0-0.345-0.28-0.625-0.625-0.625h-6.89l2.929-5.125zM22.288 5.504c-0.179-0.312-0.51-0.504-0.868-0.504h-14.84c-0.358 0-0.689 0.192-0.868 0.504l-3.712 6.496v11c0 0.553 0.447 1 1 1h22c0.553 0 1-0.447 1-1v-11l-3.712-6.496z"></path>
</svg>
