<!-- Generated by IcoMoon.io -->
<svg version="1.1" xmlns="http://www.w3.org/2000/svg" width="28" height="28" viewBox="0 0 28 28">
<title>info_solid</title>
<path d="M14.837 9.348c-0.234 0.233-0.513 0.351-0.837 0.351s-0.603-0.118-0.837-0.351c-0.234-0.234-0.351-0.513-0.351-0.837s0.117-0.603 0.351-0.837c0.234-0.234 0.513-0.351 0.837-0.351s0.603 0.117 0.837 0.351c0.234 0.234 0.351 0.513 0.351 0.837s-0.117 0.603-0.351 0.837v0zM13.19 20.103v-8.532h1.62v8.532h-1.62zM14 1.999c-6.627 0-12 5.373-12 12s5.373 12 12 12 12-5.372 12-12c0-6.627-5.373-12-12-12v0z"></path>
</svg>
