<!-- Generated by IcoMoon.io -->
<svg version="1.1" xmlns="http://www.w3.org/2000/svg" width="28" height="28" viewBox="0 0 28 28">
<title>info</title>
<path d="M14 2c6.627 0 12 5.373 12 12s-5.373 12-12 12c-6.628 0-12-5.372-12-12s5.372-12 12-12zM14 2.999c-6.065 0-11 4.935-11 11s4.935 11 11 11c6.065 0 11-4.935 11-11s-4.935-11-11-11zM13.19 20.39v-8.532h1.62v8.532h-1.62zM12.812 8.798c0-0.324 0.117-0.603 0.352-0.837 0.233-0.234 0.512-0.351 0.836-0.351 0.325 0 0.603 0.117 0.837 0.351 0.235 0.234 0.351 0.513 0.351 0.837 0 0.325-0.116 0.603-0.351 0.837-0.234 0.234-0.512 0.351-0.837 0.351s-0.603-0.117-0.836-0.351c-0.235-0.234-0.352-0.512-0.352-0.837z"></path>
</svg>
