<!-- Generated by IcoMoon.io -->
<svg version="1.1" xmlns="http://www.w3.org/2000/svg" width="28" height="28" viewBox="0 0 28 28">
<title>inquiries_solid</title>
<path d="M24.854 12.932c0.553 0 1 0.447 1 1s-0.447 1-1 1h-5c-0.553 0-1-0.447-1-1s0.447-1 1-1h5zM18.784 10.987c-0.256 0-0.512-0.098-0.707-0.293-0.391-0.391-0.391-1.023 0-1.414l3.536-3.536c0.391-0.391 1.024-0.391 1.414 0s0.391 1.023 0 1.414l-3.536 3.536c-0.195 0.195-0.451 0.293-0.707 0.293zM19.491 17.171l3.536 3.535c0.391 0.391 0.391 1.024 0 1.414-0.195 0.196-0.451 0.293-0.707 0.293s-0.512-0.097-0.707-0.293l-3.536-3.535c-0.391-0.391-0.391-1.023 0-1.414s1.023-0.391 1.414 0zM13.568 2.468c0.758-0.798 1.377-0.551 1.377 0.549v21.829c0 1.101-0.619 1.347-1.377 0.549l-5.178-5.457c-0.057-0.062-0.112-0.134-0.168-0.203h-4.722c-0.55 0-1-0.451-1-1v-9.607c0-0.551 0.45-1 1-1h4.721c0.057-0.070 0.112-0.142 0.17-0.204l5.177-5.456z"></path>
</svg>
