<!-- Generated by IcoMoon.io -->
<svg version="1.1" xmlns="http://www.w3.org/2000/svg" width="28" height="28" viewBox="0 0 28 28">
<title>inquiries</title>
<path d="M25.355 13.307c0.345 0 0.625 0.28 0.625 0.625s-0.28 0.625-0.625 0.625h-5c-0.345 0-0.625-0.28-0.625-0.625s0.28-0.625 0.625-0.625h5zM19.284 10.611c-0.16 0-0.32-0.061-0.442-0.183-0.244-0.244-0.244-0.64 0-0.884l3.535-3.536c0.244-0.244 0.64-0.244 0.885 0 0.243 0.245 0.243 0.641 0 0.885l-3.536 3.535c-0.122 0.122-0.282 0.183-0.442 0.183zM19.727 17.436l3.535 3.536c0.244 0.243 0.243 0.64-0.001 0.884-0.121 0.122-0.281 0.183-0.441 0.183s-0.321-0.061-0.443-0.184l-3.535-3.536c-0.244-0.243-0.243-0.64 0.001-0.884 0.242-0.244 0.64-0.245 0.884 0.001zM14.196 23.712v-19.562l-4.397 4.634c-0.020 0.023-0.040 0.048-0.059 0.073l-0.422 0.521h-5.067v9.106h5.066l0.376 0.462 0.049 0.062c0.019 0.024 0.038 0.050 0.058 0.071l4.396 4.633zM14.874 2c0.345 0 0.572 0.354 0.572 1.018v21.828c0 0.665-0.226 1.017-0.571 1.017-0.228 0-0.506-0.152-0.806-0.467l-5.178-5.458c-0.057-0.061-0.112-0.134-0.169-0.204h-4.721c-0.551 0-1-0.449-1-1v-9.606c0-0.55 0.449-1 1-1h4.721c0.056-0.069 0.112-0.143 0.169-0.204l5.178-5.456c0.3-0.316 0.578-0.468 0.805-0.468z"></path>
</svg>
