<!-- Generated by IcoMoon.io -->
<svg version="1.1" xmlns="http://www.w3.org/2000/svg" width="28" height="28" viewBox="0 0 28 28">
<title>instagram</title>
<path d="M14 4c2.716 0 3.057 0.012 4.124 0.061 1.063 0.048 1.79 0.216 2.428 0.463 0.656 0.257 1.214 0.599 1.771 1.154s0.897 1.114 1.154 1.773c0.247 0.635 0.415 1.361 0.462 2.426 0.051 1.066 0.061 1.407 0.061 4.123 0 2.717-0.010 3.057-0.061 4.124-0.047 1.064-0.215 1.79-0.462 2.427-0.257 0.658-0.598 1.216-1.154 1.772-0.557 0.556-1.115 0.898-1.771 1.154-0.638 0.246-1.365 0.415-2.428 0.463-1.067 0.048-1.408 0.061-4.124 0.061s-3.056-0.013-4.124-0.061c-1.064-0.048-1.79-0.217-2.426-0.463-0.659-0.256-1.218-0.598-1.772-1.154s-0.897-1.114-1.154-1.772c-0.248-0.637-0.415-1.363-0.463-2.427-0.051-1.067-0.061-1.407-0.061-4.124 0-2.716 0.010-3.057 0.061-4.123 0.048-1.065 0.215-1.791 0.463-2.426 0.257-0.659 0.599-1.218 1.154-1.773s1.113-0.897 1.772-1.154c0.636-0.247 1.362-0.415 2.426-0.463 1.068-0.049 1.408-0.061 4.124-0.061zM14 5.801c-2.67 0-2.986 0.011-4.040 0.058-0.977 0.046-1.505 0.207-1.857 0.346-0.467 0.181-0.8 0.397-1.15 0.748-0.352 0.35-0.567 0.684-0.75 1.15-0.135 0.352-0.297 0.881-0.344 1.856-0.047 1.055-0.059 1.371-0.059 4.041s0.012 2.986 0.059 4.041c0.047 0.975 0.209 1.505 0.344 1.857 0.183 0.466 0.398 0.8 0.75 1.15 0.35 0.35 0.683 0.566 1.15 0.749 0.352 0.137 0.88 0.3 1.857 0.344 1.054 0.047 1.37 0.058 4.040 0.058 2.672 0 2.985-0.011 4.040-0.058 0.975-0.044 1.506-0.207 1.857-0.344 0.467-0.183 0.801-0.399 1.152-0.749s0.565-0.684 0.748-1.15c0.135-0.352 0.299-0.882 0.344-1.857 0.047-1.055 0.059-1.371 0.059-4.041s-0.012-2.986-0.059-4.041c-0.045-0.975-0.209-1.504-0.344-1.856-0.183-0.466-0.398-0.8-0.748-1.15-0.351-0.351-0.685-0.567-1.152-0.748-0.351-0.139-0.882-0.3-1.857-0.346-1.055-0.047-1.37-0.058-4.040-0.058zM14 17.335c1.84 0 3.334-1.495 3.334-3.335s-1.494-3.334-3.334-3.334c-1.84 0-3.334 1.494-3.334 3.334s1.494 3.335 3.334 3.335zM14 8.865c2.836 0 5.136 2.299 5.136 5.135s-2.3 5.136-5.136 5.136c-2.836 0-5.134-2.3-5.134-5.136s2.298-5.135 5.134-5.135zM20.54 8.662c0 0.663-0.539 1.2-1.201 1.2-0.664 0-1.201-0.537-1.201-1.2 0-0.662 0.537-1.201 1.201-1.201 0.662 0 1.201 0.539 1.201 1.201z"></path>
</svg>
