<!-- Generated by IcoMoon.io -->
<svg version="1.1" xmlns="http://www.w3.org/2000/svg" width="28" height="28" viewBox="0 0 28 28">
<title>kakaostory</title>
<path d="M19.64 13.192c-0.12 2.487-0.809 7.082-5.573 10.746-0.099 0.075-0.239 0.071-0.364 0.042-0.111-0.026-0.244-0.167-0.244-0.167l-2.753-3.085c-0.077-0.11-0.147-0.216-0.146-0.35 0.002-0.177 0.087-0.306 0.202-0.416 0.013-0.010 1.479-1.225 2.165-2.322 0.61-0.974 1.032-2.074 1.059-3.083h-3.946c-0.574 0-1.040-0.464-1.040-1.035v-8.488c0-0.571 0.466-1.034 1.040-1.034h8.56c0.573 0 1.040 0.463 1.040 1.034v8.158z"></path>
</svg>
