<!-- Generated by IcoMoon.io -->
<svg version="1.1" xmlns="http://www.w3.org/2000/svg" width="28" height="28" viewBox="0 0 28 28">
<title>kakaotalk</title>
<path d="M10.863 13.908l0.687-1.504 0.686 1.504h-1.373zM22.177 15.501c0.027-0.065 0.045-0.137 0.045-0.21 0.003-0.097-0.030-0.196-0.088-0.272l-1.562-2.135 1.305-1.357c0.082-0.085 0.129-0.201 0.129-0.322 0-0.064-0.016-0.125-0.038-0.176-0.026-0.059-0.060-0.113-0.107-0.157l-0.075-0.074c-0.131-0.13-0.338-0.158-0.5-0.091-0.057 0.026-0.112 0.062-0.157 0.107l-1.894 1.976v-1.653c0-0.124-0.048-0.242-0.135-0.325-0.086-0.090-0.205-0.144-0.324-0.144h-0.108c-0.121 0-0.242 0.054-0.329 0.141-0.083 0.086-0.134 0.204-0.134 0.328v4.335l0.057 0.103c0.020 0.035 0.048 0.075 0.077 0.102 0.087 0.087 0.208 0.14 0.329 0.14h0.104c0.123 0 0.242-0.053 0.328-0.14 0.087-0.085 0.135-0.203 0.135-0.323v-1.075l0.611-0.637 1.457 1.988c0.041 0.058 0.102 0.107 0.167 0.14 0.152 0.075 0.343 0.055 0.48-0.040l0.083-0.063c0.059-0.043 0.112-0.102 0.144-0.166zM17.85 15.581l0.132-0.239-0.187-0.206c-0.025-0.033-0.064-0.063-0.103-0.084-0.071-0.047-0.164-0.072-0.256-0.072h-2.131v-3.843c0-0.124-0.047-0.242-0.132-0.325-0.089-0.090-0.209-0.144-0.331-0.144h-0.104c-0.124 0-0.24 0.054-0.328 0.141-0.085 0.086-0.135 0.204-0.135 0.328v4.369l0.045 0.077c0.037 0.065 0.090 0.116 0.158 0.156 0.062 0.044 0.136 0.065 0.209 0.075 0.017 0 0.034 0.003 0.048 0.003h2.701c0.125 0 0.241-0.046 0.328-0.124 0.032-0.031 0.068-0.071 0.086-0.112zM13.908 15.589l0.131-0.211-1.972-4.342c-0.010-0.047-0.032-0.099-0.060-0.141-0.014-0.030-0.036-0.054-0.063-0.080-0.038-0.050-0.075-0.080-0.116-0.103-0.069-0.044-0.149-0.068-0.227-0.072-0.042-0.003-0.060-0.006-0.080-0.006-0.087 0-0.172 0.027-0.245 0.073-0.057 0.034-0.108 0.085-0.142 0.136-0.022 0.029-0.031 0.040-0.040 0.056-0.025 0.040-0.045 0.084-0.057 0.131l-0.010 0.039-1.865 4.077c-0.026 0.060-0.038 0.121-0.038 0.188 0 0.091 0.023 0.178 0.072 0.252 0.045 0.076 0.113 0.135 0.2 0.175l0.093 0.043c0.14 0.064 0.306 0.051 0.441-0.033 0.076-0.050 0.134-0.118 0.172-0.202l0.377-0.823h2.139l0.38 0.833c0.038 0.083 0.098 0.151 0.177 0.201 0.13 0.080 0.3 0.088 0.435 0.028l0.097-0.044c0.084-0.034 0.151-0.097 0.201-0.175zM8.426 15.354v-3.832h1.113c0.125 0 0.241-0.045 0.326-0.123 0.043-0.043 0.077-0.086 0.1-0.137 0.024-0.054 0.036-0.108 0.036-0.164s-0.012-0.113-0.036-0.169c-0.035-0.070-0.092-0.137-0.17-0.182-0.074-0.049-0.166-0.079-0.256-0.079h-3.274c-0.125 0-0.241 0.046-0.328 0.13-0.042 0.040-0.075 0.085-0.099 0.131-0.023 0.056-0.034 0.113-0.034 0.169s0.011 0.11 0.034 0.164c0.033 0.076 0.096 0.137 0.167 0.188 0.079 0.049 0.167 0.072 0.26 0.072h1.13v3.832c0 0.12 0.046 0.238 0.133 0.323 0.086 0.087 0.205 0.14 0.328 0.14h0.104c0.122 0 0.241-0.053 0.327-0.14 0.088-0.085 0.139-0.203 0.139-0.323zM14 3.999c6.076 0 11 3.919 11 8.763 0 4.839-4.924 8.76-11 8.76-0.71 0-1.402-0.054-2.072-0.156l-4.759 3.049 0.833-4.31c-3.012-1.565-5.002-4.268-5.002-7.343 0-4.844 4.924-8.763 11-8.763z"></path>
</svg>
