<!-- Generated by IcoMoon.io -->
<svg version="1.1" xmlns="http://www.w3.org/2000/svg" width="28" height="28" viewBox="0 0 28 28">
<title>language</title>
<path d="M17.838 24.029c1.808-2.037 3.024-5.47 3.143-9.404h3.737c-0.249 4.301-3.031 7.925-6.88 9.404v0zM14.625 24.679v-10.054h5.109c-0.169 5.159-2.383 9.474-5.109 10.054v0zM14.625 3.32c2.726 0.58 4.94 4.896 5.109 10.055h-5.109v-10.055zM24.719 13.375h-3.737c-0.119-3.935-1.335-7.367-3.143-9.405 3.849 1.479 6.631 5.103 6.88 9.405v0zM13.375 13.375h-5.107c0.169-5.159 2.382-9.473 5.107-10.055v10.055zM13.375 24.679c-2.725-0.581-4.939-4.896-5.107-10.054h5.107v10.054zM3.281 14.625h3.737c0.119 3.934 1.336 7.367 3.143 9.404-3.848-1.479-6.631-5.103-6.88-9.404v0zM10.162 3.97c-1.807 2.038-3.024 5.47-3.143 9.405h-3.737c0.249-4.302 3.032-7.926 6.88-9.405v0zM14 2c-6.627 0-12 5.373-12 12s5.373 12 12 12c6.628 0 12-5.372 12-12s-5.372-12-12-12v0z"></path>
</svg>
