<!-- Generated by IcoMoon.io -->
<svg version="1.1" xmlns="http://www.w3.org/2000/svg" width="28" height="28" viewBox="0 0 28 28">
<title>line</title>
<path d="M20.755 12.516c0.316 0 0.575 0.259 0.575 0.578 0 0.317-0.259 0.577-0.575 0.577h-1.61v1.032h1.61c0.316 0 0.575 0.257 0.575 0.574 0 0.32-0.259 0.578-0.575 0.578h-2.188c-0.318 0-0.578-0.258-0.578-0.578v-4.37c0-0.319 0.26-0.577 0.578-0.577h2.188c0.316 0 0.575 0.258 0.575 0.575 0 0.321-0.259 0.579-0.575 0.579h-1.61v1.032h1.61zM17.217 15.276c0 0.25-0.158 0.47-0.395 0.548-0.060 0.020-0.122 0.030-0.183 0.030-0.18 0-0.352-0.086-0.459-0.231l-2.241-3.048v2.701c0 0.32-0.258 0.578-0.577 0.578s-0.577-0.258-0.577-0.578v-4.372c0-0.247 0.158-0.467 0.394-0.545 0.058-0.019 0.122-0.030 0.184-0.030 0.178 0 0.351 0.086 0.458 0.23l2.242 3.051v-2.706c0-0.317 0.258-0.575 0.577-0.575 0.317 0 0.577 0.258 0.577 0.575v4.372zM11.953 15.276c0 0.32-0.258 0.578-0.574 0.578-0.318 0-0.576-0.258-0.576-0.578v-4.372c0-0.317 0.258-0.575 0.576-0.575 0.316 0 0.574 0.258 0.574 0.575v4.372zM9.693 15.855h-2.184c-0.317 0-0.576-0.258-0.576-0.578v-4.372c0-0.317 0.259-0.575 0.576-0.575s0.575 0.258 0.575 0.575v3.798h1.609c0.32 0 0.579 0.257 0.579 0.574 0 0.32-0.259 0.578-0.579 0.578v0zM25 12.925c0-4.922-4.933-8.926-11-8.926-6.065 0-11 4.004-11 8.926 0 4.414 3.914 8.111 9.201 8.808 0.357 0.077 0.843 0.237 0.969 0.543 0.11 0.278 0.071 0.713 0.035 0.995 0 0-0.129 0.776-0.158 0.941-0.047 0.279-0.22 1.087 0.953 0.593 1.174-0.496 6.335-3.73 8.644-6.387h-0.002c1.594-1.748 2.358-3.52 2.358-5.493v0z"></path>
</svg>
