<!-- Generated by IcoMoon.io -->
<svg version="1.1" xmlns="http://www.w3.org/2000/svg" width="28" height="28" viewBox="0 0 28 28">
<title>live_talk</title>
<path d="M14 12.715c0.71 0 1.285 0.575 1.285 1.285s-0.575 1.285-1.285 1.285c-0.71 0-1.285-0.575-1.285-1.285s0.575-1.285 1.285-1.285zM8.58 12.715c0.709 0 1.285 0.575 1.285 1.285s-0.576 1.285-1.285 1.285c-0.711 0-1.286-0.575-1.286-1.285s0.575-1.285 1.286-1.285zM19.42 12.715c0.711 0 1.286 0.575 1.286 1.285s-0.575 1.285-1.286 1.285c-0.709 0-1.285-0.575-1.285-1.285s0.576-1.285 1.285-1.285zM20.443 23.091l3.397 0.875-0.624-3.881-0.070-0.432 0.216-0.381c0.907-1.609 1.388-3.432 1.388-5.272 0-3.003-1.282-5.893-3.515-7.932l-0.010-0.009-0.003-0.003c-1.989-1.81-4.554-2.806-7.222-2.806-0.291 0-0.586 0.012-0.878 0.035-4.981 0.398-9.089 4.272-9.769 9.211-0.333 2.422 0.141 4.814 1.37 6.916l0.008 0.013c1.928 3.285 5.48 5.325 9.269 5.325 1.923 0 3.822-0.526 5.491-1.522l0.448-0.267 0.504 0.13zM26 14c0 2.141-0.568 4.147-1.55 5.887l0.837 5.2c0.038 0.234-0.146 0.435-0.368 0.435-0.032 0-0.064-0.004-0.095-0.012l-4.693-1.209c-1.795 1.072-3.888 1.699-6.131 1.699-4.415 0-8.263-2.391-10.347-5.942l-0.014-0.003 0.008-0.007c-1.3-2.22-1.923-4.884-1.532-7.722 0.758-5.506 5.366-9.844 10.907-10.287 0.328-0.026 0.654-0.039 0.978-0.039 3.108 0 5.931 1.193 8.063 3.131l0.011-0.008 0.004 0.022c2.404 2.194 3.922 5.343 3.922 8.855z"></path>
</svg>
