<!-- Generated by IcoMoon.io -->
<svg version="1.1" xmlns="http://www.w3.org/2000/svg" width="28" height="28" viewBox="0 0 28 28">
<title>location_solid</title>
<path d="M14.022 15.127c-2.819 0-5.105-2.286-5.105-5.105s2.286-5.105 5.105-5.105c2.818 0 5.104 2.286 5.104 5.105s-2.286 5.105-5.104 5.105zM22.043 10.022c0-4.43-3.591-8.022-8.021-8.022-4.431 0-8.022 3.592-8.022 8.022 0 1.487 0.412 2.875 1.118 4.069h-0.024l6.287 11.529c0.277 0.507 1.004 0.507 1.281 0l6.287-11.529h-0.023c0.705-1.194 1.117-2.582 1.117-4.069z"></path>
</svg>
