<!-- Generated by IcoMoon.io -->
<svg version="1.1" xmlns="http://www.w3.org/2000/svg" width="28" height="28" viewBox="0 0 28 28">
<title>location</title>
<path d="M14.001 13.732c1.52 0 2.756-1.234 2.756-2.753 0-1.517-1.236-2.751-2.756-2.751-1.516 0-2.748 1.234-2.748 2.751 0 1.519 1.232 2.753 2.748 2.753zM14.001 6.98c2.211 0 4.004 1.789 4.004 3.999s-1.793 4.001-4.004 4.001c-2.205 0-3.996-1.791-3.996-4.001s1.791-3.999 3.996-3.999zM14.004 24.194c2.773-3.006 7.755-9.261 7.755-13.386 0-4.592-3.043-7.558-7.751-7.558h-0.007c-4.708 0-7.751 2.966-7.751 7.558 0 4.131 4.982 10.382 7.754 13.386zM14.008 2c4.972 0 9.001 3.083 9.001 8.808 0 6.15-9 15.192-9 15.192h-0.009c0 0-9-9.042-9-15.192 0-5.725 4.029-8.808 9.001-8.808h0.007z"></path>
</svg>
