<!-- Generated by IcoMoon.io -->
<svg version="1.1" xmlns="http://www.w3.org/2000/svg" width="28" height="28" viewBox="0 0 28 28">
<title>login</title>
<path d="M21.815 22.889v-10.177c0-0.474-0.387-0.861-0.861-0.861h-14.843c-0.475 0-0.861 0.387-0.861 0.861v10.177c0 0.475 0.386 0.861 0.861 0.861h14.843c0.474 0 0.861-0.386 0.861-0.861zM9.785 7.998v2.603h7.495v-2.603c0-2.066-1.681-3.748-3.747-3.748-2.067 0-3.748 1.682-3.748 3.748zM20.954 10.601c1.164 0 2.111 0.947 2.111 2.111v10.177c0 1.164-0.947 2.111-2.111 2.111h-14.843c-1.164 0-2.111-0.947-2.111-2.111v-10.177c0-1.164 0.947-2.111 2.111-2.111h2.424v-2.603c0-2.755 2.242-4.998 4.998-4.998s4.997 2.243 4.997 4.998v2.603h2.424zM13.533 15.326c0.711 0 1.287 0.577 1.287 1.289v2.37c0 0.712-0.576 1.288-1.287 1.288-0.713 0-1.289-0.576-1.289-1.288v-2.37c0-0.712 0.576-1.289 1.289-1.289z"></path>
</svg>
