<!-- Generated by IcoMoon.io -->
<svg version="1.1" xmlns="http://www.w3.org/2000/svg" width="28" height="28" viewBox="0 0 28 28">
<title>lookbook</title>
<path d="M23.412 23.706h-16.123v-3.235h1.24c0.358 0 0.648-0.29 0.648-0.648s-0.29-0.646-0.648-0.646h-1.24v-10.354h1.24c0.358 0 0.648-0.289 0.648-0.646 0-0.358-0.29-0.648-0.648-0.648h-1.24v-3.235h16.123v19.412zM23.412 3h-16.123c-0.715 0-1.294 0.579-1.294 1.294v3.235h-1.348c-0.357 0-0.647 0.29-0.647 0.648s0.29 0.646 0.647 0.646h1.348v10.354h-1.348c-0.357 0-0.647 0.289-0.647 0.646 0 0.358 0.29 0.648 0.647 0.648h1.348v3.235c0 0.715 0.579 1.294 1.294 1.294h16.123c0.714 0 1.294-0.579 1.294-1.294v-19.412c0-0.715-0.58-1.294-1.294-1.294v0z"></path>
</svg>
