<!-- Generated by IcoMoon.io -->
<svg version="1.1" xmlns="http://www.w3.org/2000/svg" width="28" height="28" viewBox="0 0 28 28">
<title>mail</title>
<path d="M23.75 20c0 0.414-0.337 0.75-0.75 0.75h-18c-0.414 0-0.75-0.336-0.75-0.75v-11.069l8.797 6.37c0.285 0.207 0.619 0.31 0.953 0.31s0.668-0.103 0.952-0.31l8.798-6.371v11.070zM5 7.25h18c0.229 0 0.427 0.109 0.564 0.271l-9.345 6.768c-0.131 0.096-0.307 0.096-0.44 0l-9.344-6.768c0.137-0.162 0.336-0.271 0.565-0.271v0zM23 6h-18c-1.104 0-2 0.896-2 2v12c0 1.104 0.896 2 2 2h18c1.104 0 2-0.896 2-2v-12c0-1.104-0.896-2-2-2v0z"></path>
</svg>
