<!-- Generated by IcoMoon.io -->
<svg version="1.1" xmlns="http://www.w3.org/2000/svg" width="28" height="28" viewBox="0 0 28 28">
<title>menu</title>
<path fill="#111" d="M3.022 7v-1h12.5v1h-12.5zM3 15v-1h20v1h-20zM3 23v-1h20v1h-20z"></path>
<path fill="#bed730" d="M24.612 6.4l-2.043-0.297-0.913-1.851c-0.166-0.337-0.646-0.337-0.812 0l-0.913 1.851-2.043 0.297c-0.371 0.054-0.52 0.51-0.251 0.772l1.478 1.44-0.349 2.035c-0.063 0.369 0.325 0.652 0.657 0.477l1.827-0.961 1.827 0.961c0.332 0.175 0.72-0.107 0.656-0.477l-0.349-2.035 1.478-1.44c0.268-0.263 0.12-0.718-0.251-0.772z"></path>
</svg>
