<!-- Generated by IcoMoon.io -->
<svg version="1.1" xmlns="http://www.w3.org/2000/svg" width="28" height="28" viewBox="0 0 28 28">
<title>notification</title>
<path d="M23.009 19.869c-0.169 0.355-0.875 0.355-1.177 0.355h-15.307c-0.704 0-1.091-0.118-1.219-0.371-0.181-0.359 0.184-0.88 0.798-1.703 0.105-0.142 0.219-0.29 0.338-0.443 0.772-0.999 1.733-2.243 1.733-3.644v-3.422c0-3.584 2.611-6.391 5.944-6.391 3.346 0 5.967 2.807 5.967 6.391v3.422c0 1.553 1.056 2.964 2.048 4.169 0.743 0.904 1.030 1.305 0.875 1.637zM14.132 23.75c-1.394 0-2.558-0.974-2.865-2.276h5.731c-0.307 1.302-1.472 2.276-2.866 2.276zM23.096 17.433c-0.658-0.798-1.76-2.135-1.76-3.37v-3.422c0-4.213-3.237-7.641-7.217-7.641-4.034 0-7.194 3.356-7.194 7.641v3.422c0 0.974-0.816 2.031-1.473 2.879-0.123 0.16-0.242 0.315-0.352 0.463-0.744 0.998-1.447 1.943-0.911 3.010 0.534 1.059 1.842 1.059 2.336 1.059h3.474c0.326 1.996 2.048 3.526 4.133 3.526s3.808-1.53 4.134-3.526h3.566c0.492 0 1.799 0 2.308-1.073 0.506-1.081-0.245-1.995-1.044-2.968z"></path>
</svg>
