<!-- Generated by IcoMoon.io -->
<svg version="1.1" xmlns="http://www.w3.org/2000/svg" width="28" height="28" viewBox="0 0 28 28">
<title>notifications_active</title>
<path d="M21.035 15.886c0 1.126 1.014 2.359 1.62 3.096 0.74 0.9 1.44 1.75 0.965 2.761-0.475 1.003-1.691 1.003-2.149 1.003h-3.271c-0.311 1.843-1.905 3.253-3.835 3.253-1.928 0-3.522-1.41-3.833-3.253h-3.185c-0.459 0-1.677 0-2.176-0.99-0.501-0.999 0.182-1.915 0.843-2.802l0.324-0.423c0.603-0.782 1.355-1.753 1.355-2.645v-3.158c0-3.967 2.925-7.073 6.66-7.073 3.685 0 6.682 3.172 6.682 7.073v3.158zM8.94 4.626c0.347 0.007 0.61 0.242 0.626 0.573s-0.242 0.612-0.573 0.626c-0.604 0.027-1.161 0.287-1.57 0.734-0.407 0.446-0.617 1.025-0.589 1.629 0.014 0.331-0.242 0.611-0.573 0.626h-0.027c-0.319 0-0.585-0.25-0.6-0.572-0.041-0.925 0.28-1.809 0.904-2.493 0.625-0.683 1.477-1.082 2.402-1.123zM8.875 3.2c-1.306 0.058-2.511 0.621-3.393 1.586s-1.336 2.215-1.277 3.52c0.015 0.331-0.242 0.612-0.573 0.626h-0.027c-0.319 0-0.584-0.251-0.599-0.573-0.072-1.625 0.492-3.182 1.591-4.384 1.098-1.201 2.599-1.902 4.225-1.974 0.318 0.008 0.612 0.242 0.626 0.573 0.015 0.331-0.242 0.611-0.573 0.626zM21.939 8.189c0.056-1.248-0.913-2.308-2.158-2.363-0.331-0.015-0.588-0.295-0.573-0.626s0.289-0.565 0.626-0.574c1.907 0.085 3.389 1.708 3.304 3.616-0.014 0.322-0.28 0.573-0.599 0.573h-0.027c-0.331-0.015-0.588-0.295-0.573-0.626zM24.175 3.976c1.099 1.201 1.663 2.758 1.591 4.383-0.015 0.322-0.28 0.573-0.6 0.573h-0.026c-0.331-0.015-0.588-0.296-0.573-0.626 0.058-1.306-0.395-2.556-1.278-3.52-0.882-0.965-2.087-1.529-3.391-1.586-0.331-0.015-0.588-0.295-0.574-0.626 0.016-0.33 0.318-0.564 0.626-0.574 1.626 0.073 3.126 0.774 4.225 1.976z"></path>
</svg>
