<!-- Generated by IcoMoon.io -->
<svg version="1.1" xmlns="http://www.w3.org/2000/svg" width="28" height="28" viewBox="0 0 28 28">
<title>pause_circle_line</title>
<path d="M14 24.75c5.928 0 10.75-4.822 10.75-10.75s-4.822-10.75-10.75-10.75c-5.928 0-10.75 4.822-10.75 10.75s4.822 10.75 10.75 10.75zM14 2c6.628 0 12 5.373 12 12s-5.372 12-12 12c-6.627 0-12-5.373-12-12s5.373-12 12-12zM10.5 7.75c0.828 0 1.5 0.672 1.5 1.5v9.5c0 0.828-0.672 1.5-1.5 1.5s-1.5-0.672-1.5-1.5v-9.5c0-0.828 0.672-1.5 1.5-1.5zM17.5 7.75c0.828 0 1.5 0.672 1.5 1.5v9.5c0 0.828-0.672 1.5-1.5 1.5s-1.5-0.672-1.5-1.5v-9.5c0-0.828 0.672-1.5 1.5-1.5z"></path>
</svg>
