<!-- Generated by IcoMoon.io -->
<svg version="1.1" xmlns="http://www.w3.org/2000/svg" width="28" height="28" viewBox="0 0 28 28">
<title>pause_circle_solid</title>
<path d="M19 18.75c0 0.828-0.671 1.5-1.5 1.5-0.828 0-1.5-0.672-1.5-1.5v-9.5c0-0.828 0.672-1.5 1.5-1.5 0.829 0 1.5 0.672 1.5 1.5v9.5zM12 18.75c0 0.828-0.671 1.5-1.5 1.5-0.828 0-1.5-0.672-1.5-1.5v-9.5c0-0.828 0.672-1.5 1.5-1.5 0.829 0 1.5 0.672 1.5 1.5v9.5zM14 2c-6.627 0-12 5.373-12 12s5.373 12 12 12c6.628 0 12-5.373 12-12s-5.372-12-12-12v0z"></path>
</svg>
