<!-- Generated by IcoMoon.io -->
<svg version="1.1" xmlns="http://www.w3.org/2000/svg" width="28" height="28" viewBox="0 0 28 28">
<title>payment</title>
<path d="M23.75 9.809v-2.586l-19.445-0.055-0.011 2.641h19.456zM23.75 20.778v-9.719h-19.461l-0.039 9.719 19.445 0.054 0.055-0.054zM23.75 3h1.25v22h-1.25v-2.928c-0.020 0.001-0.035 0.010-0.055 0.010h-19.39c-0.72 0-1.305-0.585-1.305-1.304v-13.555c0-0.72 0.585-1.305 1.305-1.305h19.39c0.020 0 0.035 0.010 0.055 0.011v-2.929zM11.406 18.84h-4.539v-1.25h4.539v1.25zM14 16.246h-7.133v-1.25h7.133v1.25z"></path>
</svg>
