<!-- Generated by IcoMoon.io -->
<svg version="1.1" xmlns="http://www.w3.org/2000/svg" width="28" height="28" viewBox="0 0 28 28">
<title>photo_camera</title>
<path d="M24.75 21.548v-11.682c0-0.974-0.427-1.511-1.202-1.511h-2.72c-1.47 0-2.113-1.402-2.497-2.24l-0.388-0.85c-0.027-0.007-0.073-0.015-0.138-0.015h-7.611c0.046 0-0.095-0.070-0.079-0.112-0.011 0.024-0.146 0.323-0.442 0.97-0.383 0.839-1.026 2.247-2.502 2.247h-2.716c-0.777 0-1.205 0.537-1.205 1.511v11.682c0 0.427 0.442 1.028 1.427 1.028h18.478c1.047 0 1.595-0.517 1.595-1.028zM23.548 7.105c1.311 0 2.452 0.922 2.452 2.761v11.682c0 1.14-1.008 2.278-2.845 2.278h-18.478c-1.669 0-2.677-1.138-2.677-2.278v-11.682c0-1.839 1.14-2.761 2.455-2.761h2.716c0.673 0 1.053-0.832 1.365-1.518 0.316-0.688 0.447-0.98 0.447-0.98s0.285-0.607 1.211-0.607h7.611c0.926 0 1.213 0.607 1.213 0.607s0.131 0.292 0.445 0.98c0.314 0.686 0.694 1.518 1.365 1.518h2.72zM13.999 19.714c2.619 0 4.751-2.131 4.751-4.749 0-2.619-2.132-4.75-4.751-4.75s-4.749 2.131-4.749 4.75c0 2.618 2.13 4.749 4.749 4.749zM13.999 8.965c3.313 0 6.001 2.687 6.001 6s-2.688 5.999-6.001 5.999c-3.313 0-5.999-2.686-5.999-5.999s2.686-6 5.999-6z"></path>
</svg>
