<!-- Generated by IcoMoon.io -->
<svg version="1.1" xmlns="http://www.w3.org/2000/svg" width="28" height="28" viewBox="0 0 28 28">
<title>photo_libray</title>
<path d="M4.25 23c0 0.414 0.336 0.75 0.75 0.75h15v1.25h-15c-1.104 0-2-0.896-2-2v-14h1.25v14zM23.75 16.074v-11.074c0-0.414-0.336-0.75-0.75-0.75h-15c-0.414 0-0.75 0.336-0.75 0.75v11.937l3.321-3.32c0.169-0.169 0.39-0.254 0.611-0.254s0.442 0.085 0.611 0.254l2.412 2.411 4.139-4.139c0.169-0.169 0.389-0.252 0.611-0.252 0.221 0 0.441 0.083 0.61 0.252l4.185 4.185zM23.75 20v-2.158l-4.795-4.795-4.75 4.75-3.023-3.024-3.932 3.932v1.295c0 0.414 0.336 0.75 0.75 0.75h15c0.414 0 0.75-0.336 0.75-0.75zM23 3c1.104 0 2 0.895 2 2v15.272c0 0.954-0.773 1.728-1.728 1.728h-15.544c-0.955 0-1.728-0.774-1.728-1.728v-15.272c0-1.105 0.896-2 2-2h15zM11.182 9.522c0.264 0 0.478-0.214 0.478-0.478 0-0.262-0.214-0.476-0.478-0.476-0.263 0-0.477 0.214-0.477 0.476 0 0.264 0.214 0.478 0.477 0.478zM11.182 7.319c0.954 0 1.728 0.773 1.728 1.726 0 0.956-0.774 1.728-1.728 1.728s-1.727-0.772-1.727-1.728c0-0.953 0.773-1.726 1.727-1.726z"></path>
</svg>
