<!-- Generated by IcoMoon.io -->
<svg version="1.1" xmlns="http://www.w3.org/2000/svg" width="28" height="28" viewBox="0 0 28 28">
<title>photo</title>
<path d="M18.707 13.293l5.043 5.043v-13.336c0-0.414-0.336-0.75-0.75-0.75h-18c-0.414 0-0.75 0.336-0.75 0.75v14.336l4.043-4.043c0.195-0.195 0.451-0.293 0.707-0.293s0.512 0.098 0.707 0.293l2.793 2.793 4.793-4.793c0.195-0.195 0.451-0.293 0.707-0.293s0.512 0.098 0.707 0.293zM23 23.75c0.414 0 0.75-0.336 0.75-0.75v-2.896l-5.75-5.75-5.5 5.5-3.5-3.5-4.75 4.75v1.896c0 0.414 0.336 0.75 0.75 0.75h18zM23 3c1.104 0 2 0.896 2 2v18c0 0.276-0.056 0.539-0.157 0.778-0.253 0.599-0.788 1.048-1.44 1.181-0.13 0.027-0.265 0.041-0.403 0.041h-18c-0.138 0-0.273-0.014-0.403-0.041-0.651-0.133-1.187-0.582-1.44-1.181-0.101-0.239-0.157-0.502-0.157-0.778v-18c0-1.104 0.895-2 2-2h18zM9 10.75c0.414 0 0.75-0.336 0.75-0.75s-0.336-0.75-0.75-0.75c-0.414 0-0.75 0.336-0.75 0.75s0.336 0.75 0.75 0.75zM9 8c1.104 0 2 0.896 2 2s-0.896 2-2 2c-1.104 0-2-0.896-2-2s0.896-2 2-2z"></path>
</svg>
