<!-- Generated by IcoMoon.io -->
<svg version="1.1" xmlns="http://www.w3.org/2000/svg" width="28" height="28" viewBox="0 0 28 28">
<title>pinterest</title>
<path d="M14 3c-6.074 0-11 4.925-11 11 0 4.504 2.709 8.374 6.584 10.074-0.031-0.767-0.006-1.689 0.192-2.525 0.21-0.894 1.414-5.994 1.414-5.994s-0.35-0.702-0.35-1.741c0-1.629 0.945-2.846 2.121-2.846 1 0 1.483 0.751 1.483 1.65 0 1.006-0.64 2.511-0.97 3.904-0.277 1.166 0.586 2.119 1.736 2.119 2.084 0 3.487-2.677 3.487-5.848 0-2.411-1.623-4.216-4.577-4.216-3.336 0-5.415 2.488-5.415 5.268 0 0.959 0.282 1.634 0.726 2.157 0.202 0.241 0.231 0.338 0.157 0.613-0.053 0.203-0.174 0.691-0.225 0.883-0.072 0.279-0.298 0.378-0.55 0.275-1.537-0.627-2.251-2.31-2.251-4.202 0-3.125 2.634-6.872 7.86-6.872 4.199 0 6.965 3.040 6.965 6.302 0 4.315-2.401 7.539-5.937 7.539-1.187 0-2.304-0.642-2.686-1.371 0 0-0.64 2.534-0.774 3.023-0.233 0.849-0.69 1.696-1.107 2.357 0.989 0.292 2.034 0.451 3.117 0.451 6.074 0 11-4.925 11-11s-4.926-11-11-11z"></path>
</svg>
