<!-- Generated by IcoMoon.io -->
<svg version="1.1" xmlns="http://www.w3.org/2000/svg" width="28" height="28" viewBox="0 0 28 28">
<title>play_circle_line</title>
<path d="M14 24.75c5.928 0 10.75-4.822 10.75-10.75s-4.822-10.75-10.75-10.75c-5.927 0-10.75 4.822-10.75 10.75s4.823 10.75 10.75 10.75zM14 2c6.628 0 12 5.373 12 12s-5.372 12-12 12c-6.627 0-12-5.373-12-12s5.373-12 12-12zM18.661 13.020c0.905 0.539 0.905 1.422 0 1.96l-6.354 3.786c-0.905 0.539-1.645 0.117-1.645-0.935v-7.661c0-1.052 0.74-1.474 1.645-0.935l6.354 3.785z"></path>
</svg>
