<!-- Generated by IcoMoon.io -->
<svg version="1.1" xmlns="http://www.w3.org/2000/svg" width="28" height="28" viewBox="0 0 28 28">
<title>product</title>
<path d="M9.966 17.222c0-3.011 1.907-3.855 2.79-4.058 0.026-0.005 0.066-0.012 0.088-0.014v0.131c-0.024 0.003-0.058 0.012-0.094 0.027-0.101 0.045-0.26 0.157-0.398 0.324-0.556 0.668-0.684 1.922-0.7 3.59s0.144 2.922 0.7 3.59c0.138 0.167 0.297 0.279 0.398 0.323 0.036 0.016 0.070 0.025 0.094 0.028v0.13c-0.022-0.001-0.062-0.009-0.088-0.014-0.883-0.203-2.79-1.046-2.79-4.057zM15.092 13.164c0.884 0.202 2.791 1.047 2.791 4.058 0 3.010-1.907 3.854-2.791 4.056-0.025 0.006-0.066 0.014-0.088 0.015v-0.13c0.025-0.004 0.059-0.013 0.095-0.028 0.1-0.044 0.259-0.157 0.397-0.324 0.556-0.668 0.716-1.921 0.7-3.589s-0.144-2.922-0.7-3.59c-0.138-0.167-0.297-0.28-0.397-0.324-0.036-0.015-0.070-0.024-0.095-0.028v-0.131c0.022 0.002 0.063 0.009 0.088 0.015zM23.746 22.864l0.004-11.951v-0.004l-19.5 0.010v11.941l19.496 0.004zM6.371 5.449l-1.804 4.219 8.732-0.004v-4.414h-6.626c-0.095 0-0.264 0.111-0.302 0.199zM14.549 5.25v4.414l8.763-0.005-2.323-4.181c-0.057-0.104-0.267-0.228-0.388-0.228h-6.052zM24.615 9.431c0.22 0.396 0.385 1.033 0.385 1.483v11.947c0 0.691-0.563 1.254-1.254 1.254h-19.493c-0.691 0-1.253-0.563-1.253-1.254v-11.947c0-0.434 0.128-1.059 0.298-1.454l1.925-4.502c0.233-0.546 0.856-0.957 1.45-0.957h13.928c0.569 0 1.206 0.375 1.481 0.871l2.533 4.559z"></path>
</svg>
