<!-- Generated by IcoMoon.io -->
<svg version="1.1" xmlns="http://www.w3.org/2000/svg" width="28" height="28" viewBox="0 0 28 28">
<title>refund</title>
<path d="M14.772 4.008c5.185 0.382 9.288 4.711 9.288 9.992 0 4.332-2.761 8.159-6.87 9.522-0.059 0.019-0.118 0.028-0.176 0.028-0.233 0-0.451-0.147-0.528-0.381-0.097-0.292 0.061-0.607 0.352-0.704 3.654-1.212 6.109-4.613 6.109-8.465 0-4.638-3.56-8.456-8.090-8.875l0.921 0.982c0.21 0.223 0.199 0.576-0.026 0.787-0.107 0.1-0.244 0.15-0.38 0.15-0.149 0-0.297-0.058-0.407-0.176l-1.846-1.966c-0.201-0.214-0.201-0.548 0-0.763l1.846-1.965c0.212-0.223 0.563-0.233 0.788-0.024 0.224 0.211 0.235 0.563 0.025 0.788l-1.006 1.070zM13.067 21.142l1.847 1.967c0.201 0.214 0.201 0.548 0 0.762l-1.847 1.965c-0.11 0.118-0.258 0.176-0.406 0.176-0.137 0-0.274-0.050-0.382-0.15-0.224-0.211-0.234-0.564-0.024-0.787l1.017-1.083c-5.177-0.39-9.272-4.716-9.272-9.992 0-4.304 2.737-8.123 6.811-9.502 0.29-0.101 0.608 0.057 0.706 0.349 0.099 0.292-0.057 0.607-0.348 0.706-3.623 1.226-6.056 4.62-6.056 8.447 0 4.624 3.54 8.436 8.052 8.872l-0.91-0.968c-0.21-0.224-0.2-0.576 0.025-0.787 0.225-0.209 0.577-0.2 0.787 0.025zM16.233 16.156l0.566-2.333h-1.188l0.557 2.333h0.065zM13.693 12.863h0.61l-0.272-1.242h-0.066l-0.272 1.242zM11.85 16.145l0.556-2.322h-1.177l0.556 2.322h0.065zM17.933 13.823l-1.068 4.263h-1.352l-0.981-4.263h-1.058l-0.98 4.263h-1.353l-1.057-4.263h-1.516v-0.96h1.287l-0.73-2.943h1.166l0.709 2.943h1.613l0.698-2.943h1.385l0.697 2.943h1.625l0.708-2.943h1.178l-0.741 2.943h1.319v0.96h-1.549z"></path>
</svg>
