<!-- Generated by IcoMoon.io -->
<svg version="1.1" xmlns="http://www.w3.org/2000/svg" width="28" height="28" viewBox="0 0 28 28">
<title>replay</title>
<path d="M25.858 5.010c-0.024-0.378-0.42-0.481-0.697-0.274-0.071 0.052-0.911 0.681-2.016 1.507-2.2-2.593-5.477-4.244-9.144-4.244-6.626 0-12 5.373-12 12s5.374 12.001 12 12.001c2.893 0 5.547-1.025 7.62-2.732 0.004-0.003 0.006-0.011 0.008-0.015 0.193-0.182 0.317-0.436 0.317-0.722 0-0.254-0.103-0.48-0.259-0.657-0.005-0.026-0.008-0.046-0.008-0.046l-2.046-2.045c0 0-0.018-0.005-0.042-0.012-0.182-0.194-0.436-0.318-0.722-0.318-0.162 0-0.31 0.047-0.446 0.116-0.040 0.006-0.076 0.016-0.098 0.033-1.197 0.928-2.696 1.482-4.324 1.482-3.906 0-7.083-3.179-7.083-7.085s3.177-7.084 7.083-7.084c2.051 0 3.895 0.885 5.189 2.286-1.033 0.773-1.812 1.356-1.908 1.428-0.306 0.229-0.245 0.625 0.049 0.742 0.4 0.161 7.526 2.525 7.89 2.642 0.318 0.102 0.641-0.144 0.647-0.483 0.007-0.511 0.011-8.218-0.010-8.52z"></path>
</svg>
