<!-- Generated by IcoMoon.io -->
<svg version="1.1" xmlns="http://www.w3.org/2000/svg" width="28" height="28" viewBox="0 0 28 28">
<title>return</title>
<path d="M14.77 4.009c5.185 0.381 9.288 4.711 9.288 9.992 0 4.333-2.761 8.159-6.871 9.522-0.058 0.019-0.117 0.028-0.175 0.028-0.233 0-0.451-0.147-0.528-0.382-0.097-0.292 0.061-0.606 0.353-0.703 3.653-1.212 6.108-4.613 6.108-8.465 0-4.638-3.561-8.457-8.090-8.875l0.921 0.982c0.21 0.223 0.199 0.576-0.026 0.787-0.107 0.1-0.244 0.15-0.38 0.15-0.149 0-0.297-0.058-0.407-0.176l-1.845-1.966c-0.202-0.214-0.202-0.548 0-0.762l1.845-1.965c0.213-0.225 0.565-0.234 0.787-0.025 0.225 0.211 0.236 0.563 0.026 0.787l-1.006 1.071zM13.067 21.142l1.846 1.967c0.201 0.214 0.201 0.548 0 0.762l-1.846 1.965c-0.109 0.118-0.258 0.176-0.406 0.176-0.137 0-0.274-0.050-0.381-0.15-0.225-0.211-0.235-0.564-0.025-0.787l1.017-1.083c-5.177-0.39-9.272-4.717-9.272-9.992 0-4.305 2.737-8.124 6.811-9.502 0.291-0.101 0.608 0.057 0.706 0.349 0.099 0.292-0.057 0.607-0.348 0.706-3.623 1.226-6.056 4.62-6.056 8.447 0 4.624 3.539 8.436 8.051 8.872l-0.909-0.968c-0.21-0.224-0.2-0.576 0.025-0.787 0.225-0.209 0.577-0.2 0.787 0.025zM14.701 13.799h3.335v-2.148h-3.335v2.148zM14.701 17.95h3.335v-3.039h-3.335v3.039zM10.253 13.799h3.335v-2.148h-3.335v2.148zM10.253 17.95h3.335v-3.039h-3.335v3.039zM16.299 8.209l0.713 0.856-1.767 1.472h3.904v8.528h-10.009v-8.528h3.958l-1.655-1.486 0.745-0.828 1.97 1.77 2.141-1.784z"></path>
</svg>
