<!-- Generated by IcoMoon.io -->
<svg version="1.1" xmlns="http://www.w3.org/2000/svg" width="28" height="28" viewBox="0 0 28 28">
<title>search</title>
<path d="M11.93 20.76c-4.317 0-7.83-3.513-7.83-7.83 0-4.316 3.513-7.829 7.83-7.829s7.83 3.513 7.83 7.829c0 4.317-3.513 7.83-7.83 7.83v0zM19.076 18.269c1.116-1.49 1.784-3.334 1.784-5.339 0-4.932-3.998-8.93-8.93-8.93s-8.93 3.998-8.93 8.93c0 4.933 3.998 8.931 8.93 8.931 2.53 0 4.81-1.058 6.435-2.748l4.97 4.969 0.778-0.777-5.037-5.036z"></path>
</svg>
