<!-- Generated by IcoMoon.io -->
<svg version="1.1" xmlns="http://www.w3.org/2000/svg" width="28" height="28" viewBox="0 0 28 28">
<title>sentiment_dissatisfied</title>
<path d="M14 15.894c2.169 0 4.169 1.182 5.219 3.084 0.167 0.302 0.057 0.683-0.245 0.849-0.096 0.052-0.2 0.078-0.301 0.078-0.221 0-0.435-0.116-0.548-0.323-0.83-1.503-2.411-2.438-4.125-2.438s-3.295 0.935-4.125 2.438c-0.165 0.301-0.546 0.412-0.849 0.245s-0.412-0.547-0.245-0.849c1.050-1.902 3.050-3.084 5.219-3.084zM14 24.75c5.928 0 10.75-4.823 10.75-10.75s-4.822-10.75-10.75-10.75-10.75 4.822-10.75 10.75c0 5.927 4.822 10.75 10.75 10.75zM14 2c6.627 0 12 5.372 12 12s-5.373 12-12 12-12-5.373-12-12c0-6.628 5.373-12 12-12zM11.033 11.519c0 0.829-0.672 1.5-1.5 1.5s-1.5-0.671-1.5-1.5c0-0.828 0.672-1.5 1.5-1.5s1.5 0.672 1.5 1.5zM18.503 10.019c0.829 0 1.5 0.672 1.5 1.5 0 0.829-0.671 1.5-1.5 1.5-0.828 0-1.5-0.671-1.5-1.5 0-0.828 0.672-1.5 1.5-1.5z"></path>
</svg>
