<!-- Generated by IcoMoon.io -->
<svg version="1.1" xmlns="http://www.w3.org/2000/svg" width="28" height="28" viewBox="0 0 28 28">
<title>sentiment_satisfied</title>
<path d="M18.974 15.972c0.303 0.166 0.412 0.547 0.245 0.849-1.050 1.902-3.050 3.084-5.219 3.084s-4.169-1.182-5.218-3.084c-0.167-0.302-0.058-0.683 0.245-0.849s0.683-0.058 0.848 0.245c0.83 1.503 2.412 2.438 4.125 2.438s3.295-0.935 4.125-2.438c0.165-0.303 0.546-0.412 0.849-0.245zM14 24.75c5.928 0 10.75-4.823 10.75-10.75s-4.822-10.75-10.75-10.75-10.75 4.822-10.75 10.75c0 5.927 4.822 10.75 10.75 10.75zM14 2c6.627 0 12 5.372 12 12s-5.373 12-12 12-12-5.373-12-12c0-6.628 5.373-12 12-12zM11.033 11.519c0 0.829-0.672 1.5-1.5 1.5s-1.5-0.671-1.5-1.5c0-0.828 0.672-1.5 1.5-1.5s1.5 0.672 1.5 1.5zM18.503 10.019c0.829 0 1.5 0.672 1.5 1.5 0 0.829-0.671 1.5-1.5 1.5-0.828 0-1.5-0.671-1.5-1.5 0-0.828 0.672-1.5 1.5-1.5z"></path>
</svg>
