<!-- Generated by IcoMoon.io -->
<svg version="1.1" xmlns="http://www.w3.org/2000/svg" width="28" height="28" viewBox="0 0 28 28">
<title>settings</title>
<path d="M13.536 17.583c1.976 0 3.583-1.607 3.583-3.583s-1.607-3.583-3.583-3.583c-1.977 0-3.584 1.607-3.584 3.583s1.607 3.583 3.584 3.583zM13.536 9.417c2.531 0 4.583 2.052 4.583 4.583s-2.052 4.583-4.583 4.583c-2.531 0-4.584-2.052-4.584-4.583s2.053-4.583 4.584-4.583zM21.266 20.327c0.688-0.84 1.238-1.787 1.62-2.792-1.028-0.879-1.642-2.172-1.642-3.535s0.614-2.656 1.642-3.535c-0.382-1.004-0.932-1.952-1.62-2.792-0.504 0.178-1.035 0.27-1.569 0.27-0.808 0-1.606-0.214-2.308-0.619-1.178-0.681-1.99-1.857-2.238-3.185-0.548-0.092-1.088-0.139-1.615-0.139-0.528 0-1.069 0.047-1.616 0.139-0.248 1.328-1.060 2.505-2.239 3.185-0.702 0.405-1.499 0.619-2.307 0.619-0.534 0-1.065-0.092-1.569-0.27-0.688 0.84-1.239 1.788-1.621 2.792 1.029 0.879 1.643 2.172 1.643 3.535s-0.614 2.656-1.643 3.535c0.383 1.004 0.933 1.952 1.621 2.792 0.504-0.179 1.035-0.271 1.569-0.271 0.808 0 1.606 0.214 2.307 0.62 1.179 0.679 1.991 1.857 2.239 3.185 0.547 0.092 1.088 0.139 1.616 0.139s1.067-0.047 1.615-0.139c0.248-1.328 1.060-2.505 2.238-3.185 0.702-0.406 1.5-0.62 2.308-0.62 0.534 0 1.065 0.092 1.569 0.271zM22.244 14c0 1.351 0.739 2.518 1.827 3.154-0.497 1.664-1.381 3.157-2.543 4.388-0.559-0.317-1.191-0.486-1.831-0.486-0.615 0-1.236 0.156-1.808 0.486-1.168 0.674-1.809 1.894-1.818 3.152-0.816 0.194-1.661 0.306-2.535 0.306s-1.721-0.112-2.536-0.306c-0.009-1.258-0.651-2.478-1.819-3.152-0.571-0.33-1.192-0.486-1.807-0.486-0.64 0-1.273 0.169-1.832 0.486-1.161-1.231-2.045-2.724-2.542-4.388 1.088-0.636 1.827-1.803 1.827-3.154 0-1.352-0.739-2.519-1.827-3.154 0.497-1.665 1.381-3.158 2.542-4.388 0.559 0.316 1.192 0.485 1.832 0.485 0.614 0 1.236-0.155 1.807-0.485 1.168-0.674 1.81-1.895 1.819-3.152 0.815-0.194 1.662-0.306 2.536-0.306s1.719 0.112 2.535 0.306c0.009 1.257 0.65 2.478 1.818 3.152 0.572 0.33 1.193 0.485 1.808 0.485 0.64 0 1.272-0.169 1.831-0.485 1.162 1.23 2.046 2.723 2.543 4.388-1.088 0.635-1.827 1.802-1.827 3.154z"></path>
</svg>
