<!-- Generated by IcoMoon.io -->
<svg version="1.1" xmlns="http://www.w3.org/2000/svg" width="28" height="28" viewBox="0 0 28 28">
<title>shiping</title>
<path d="M8.447 17.090c-0.885-0.203-2.797-1.049-2.797-4.067s1.912-3.866 2.797-4.068c0.027-0.007 0.066-0.012 0.088-0.014v0.13c-0.024 0.004-0.057 0.013-0.094 0.028-0.101 0.045-0.26 0.158-0.399 0.325-0.557 0.67-0.686 1.927-0.701 3.599-0.017 1.671 0.144 2.929 0.701 3.599 0.139 0.166 0.298 0.28 0.399 0.324 0.037 0.015 0.070 0.024 0.094 0.028v0.131c-0.022-0.002-0.061-0.009-0.088-0.015zM13.588 13.022c0 3.019-1.912 3.864-2.798 4.067-0.026 0.006-0.066 0.013-0.088 0.015v-0.131c0.025-0.004 0.059-0.013 0.095-0.027 0.101-0.045 0.259-0.158 0.398-0.324 0.557-0.67 0.717-1.928 0.701-3.6s-0.144-2.929-0.701-3.599c-0.139-0.167-0.297-0.28-0.398-0.325-0.036-0.014-0.070-0.023-0.095-0.027v-0.131c0.022 0.002 0.062 0.008 0.088 0.015 0.886 0.202 2.798 1.048 2.798 4.067zM27 20.285v-4.737c0-0.223-0.094-0.606-0.196-0.803l-2.155-4.148c-0.052-0.101-0.242-0.216-0.356-0.216h-5.008l-0.047 9.904 1.722 0.011c0.394-0.904 1.293-1.537 2.34-1.537 1.057 0 1.968 0.646 2.354 1.565l1.298 0.008 0.048-0.047zM23.3 22.865c0.856 0 1.554-0.697 1.554-1.554 0-0.856-0.698-1.552-1.554-1.552-0.857 0-1.554 0.696-1.554 1.552 0 0.857 0.697 1.554 1.554 1.554zM18.238 10.429v-4.382l-17.19-0.047-0.048 14.285 1.724 0.006c0.395-0.901 1.293-1.532 2.338-1.532 1.051 0 1.956 0.639 2.346 1.548l10.782 0.025 0.048-0.047v-9.856zM5.062 22.865c0.856 0 1.553-0.697 1.553-1.554 0-0.856-0.697-1.552-1.553-1.552-0.857 0-1.554 0.696-1.554 1.552 0 0.857 0.697 1.554 1.554 1.554zM27.691 14.284c0.176 0.339 0.309 0.883 0.309 1.264v4.737c0 0.577-0.47 1.047-1.048 1.047h-1.1c-0.012 1.398-1.151 2.533-2.552 2.533-1.402 0-2.54-1.135-2.552-2.533h-1.463c-0.205 0-0.385-0.075-0.547-0.177-0.162 0.102-0.342 0.177-0.548 0.177h-10.577c-0.011 1.398-1.15 2.533-2.551 2.533s-2.541-1.135-2.552-2.533h-1.462c-0.578 0-1.048-0.47-1.048-1.047v-14.238c0-0.577 0.47-1.047 1.048-1.047h17.142c0.579 0 1.048 0.47 1.048 1.047v3.343c0.017-0.001 0.031-0.009 0.047-0.009h5.008c0.485 0 1.020 0.324 1.243 0.755l2.155 4.148z"></path>
</svg>
