<!-- Generated by IcoMoon.io -->
<svg version="1.1" xmlns="http://www.w3.org/2000/svg" width="28" height="28" viewBox="0 0 28 28">
<title>shopping_cart</title>
<path d="M9.439 16.848l-2.619-9.4h18.021l-2.62 9.4h-12.782zM11.275 21.251c0.804 0 1.458 0.655 1.458 1.458 0 0.805-0.654 1.459-1.458 1.459s-1.458-0.654-1.458-1.459c0-0.803 0.654-1.458 1.458-1.458v0zM23.023 21.251c0.804 0 1.458 0.655 1.458 1.458 0 0.805-0.654 1.459-1.458 1.459-0.805 0-1.459-0.654-1.459-1.459 0-0.803 0.654-1.458 1.459-1.458v0zM23.083 17.483l2.898-10.402c0.042-0.151 0.003-0.311-0.092-0.436-0.094-0.125-0.249-0.197-0.405-0.197h-18.942l-0.961-3.448h-3.581v1h2.821l4.727 16.963c-0.451 0.447-0.731 1.064-0.731 1.746 0 1.356 1.102 2.459 2.458 2.459 1.355 0 2.458-1.103 2.458-2.459 0-0.274-0.056-0.533-0.139-0.78h7.11c-0.084 0.247-0.14 0.506-0.14 0.78 0 1.356 1.104 2.459 2.459 2.459s2.458-1.103 2.458-2.459c0-1.355-1.103-2.458-2.458-2.458-0.653 0-1.244 0.261-1.686 0.678h-8.377c-0.441-0.417-1.032-0.678-1.685-0.678-0.298 0-0.579 0.062-0.844 0.159l-0.714-2.562h12.884c0.225 0 0.421-0.149 0.482-0.365v0z"></path>
</svg>
