<!-- Generated by IcoMoon.io -->
<svg version="1.1" xmlns="http://www.w3.org/2000/svg" width="28" height="28" viewBox="0 0 28 28">
<title>slideshow1</title>
<path d="M23.75 23v-18c0-0.414-0.336-0.75-0.75-0.75h-18c-0.414 0-0.75 0.336-0.75 0.75v18c0 0.414 0.336 0.75 0.75 0.75h18c0.414 0 0.75-0.336 0.75-0.75zM23 3c1.104 0 2 0.896 2 2v18c0 1.104-0.896 2-2 2h-18c-1.104 0-2-0.896-2-2v-18c0-1.104 0.896-2 2-2h18zM17.568 13.146c0.787 0.47 0.787 1.237 0 1.706l-5.53 3.295c-0.788 0.469-1.433 0.103-1.433-0.814v-6.667c0-0.916 0.645-1.283 1.433-0.814l5.53 3.294z"></path>
</svg>
