<!-- Generated by IcoMoon.io -->
<svg version="1.1" xmlns="http://www.w3.org/2000/svg" width="28" height="28" viewBox="0 0 28 28">
<title>smartphone_solid</title>
<path d="M8 22.208v-15.833h13v15.833h-13zM14.5 25.258c-0.497 0-0.9-0.403-0.9-0.9s0.403-0.9 0.9-0.9c0.497 0 0.9 0.403 0.9 0.9s-0.403 0.9-0.9 0.9v0zM12.5 4h4c0.276 0 0.5 0.224 0.5 0.5s-0.224 0.5-0.5 0.5h-4c-0.276 0-0.5-0.224-0.5-0.5s0.224-0.5 0.5-0.5v0zM21 2h-13c-0.553 0-1 0.447-1 1v22c0 0.553 0.447 1 1 1h13c0.553 0 1-0.447 1-1v-22c0-0.553-0.447-1-1-1v0z"></path>
</svg>
