<!-- Generated by IcoMoon.io -->
<svg version="1.1" xmlns="http://www.w3.org/2000/svg" width="28" height="28" viewBox="0 0 28 28">
<title>smartphone</title>
<path d="M21 6.281v-2.281c0-0.552-0.448-1-1-1h-12c-0.552 0-1 0.448-1 1v2.281h14zM7 19.704h14v-12.423h-14v12.423zM21 24v-3.296h-14v3.296c0 0.552 0.448 1 1 1h12c0.552 0 1-0.448 1-1zM20 2c1.104 0 2 0.895 2 2v20c0 1.104-0.896 2-2 2h-12c-1.104 0-2-0.896-2-2v-20c0-1.105 0.896-2 2-2h12zM15.205 4.31c0.275 0 0.5 0.224 0.5 0.5s-0.225 0.5-0.5 0.5h-2.555c-0.277 0-0.5-0.224-0.5-0.5s0.223-0.5 0.5-0.5h2.555zM14.026 22.272c-0.331 0-0.601 0.27-0.601 0.601s0.27 0.599 0.601 0.599 0.6-0.269 0.6-0.599c0-0.331-0.269-0.601-0.6-0.601zM14.026 24.472c-0.884 0-1.601-0.717-1.601-1.599 0-0.884 0.717-1.601 1.601-1.601s1.6 0.717 1.6 1.601c0 0.882-0.716 1.599-1.6 1.599z"></path>
</svg>
