<!-- Generated by IcoMoon.io -->
<svg version="1.1" xmlns="http://www.w3.org/2000/svg" width="28" height="28" viewBox="0 0 28 28">
<title>swap_horiz</title>
<path d="M17.885 12.652l3.167-3.168h-16.052v-1.25h16.052l-3.167-3.166c-0.243-0.244-0.243-0.641 0-0.885s0.641-0.244 0.885 0l4.233 4.234c0.243 0.244 0.243 0.64 0 0.883l-4.233 4.235c-0.122 0.122-0.282 0.183-0.443 0.183-0.16 0-0.32-0.060-0.441-0.182-0.244-0.244-0.245-0.641-0.001-0.884zM23.186 18.517v1.25h-16.052l3.167 3.166c0.244 0.244 0.245 0.641 0.001 0.885-0.122 0.121-0.282 0.182-0.442 0.182s-0.32-0.060-0.442-0.182l-4.234-4.234c-0.118-0.117-0.184-0.276-0.184-0.442s0.066-0.325 0.183-0.442l4.234-4.235c0.245-0.244 0.641-0.244 0.885 0 0.243 0.244 0.243 0.641 0 0.885l-3.168 3.167h16.052z"></path>
</svg>
