<!-- Generated by IcoMoon.io -->
<svg version="1.1" xmlns="http://www.w3.org/2000/svg" width="28" height="28" viewBox="0 0 28 28">
<title>swap_vert</title>
<path d="M23.817 17.885c0.243 0.244 0.243 0.641 0 0.885l-4.233 4.233c-0.122 0.122-0.283 0.183-0.443 0.183s-0.32-0.061-0.441-0.183l-4.235-4.233c-0.244-0.244-0.245-0.641-0.001-0.884 0.245-0.244 0.642-0.245 0.884-0.001l3.168 3.167v-16.052h1.25v16.052l3.166-3.167c0.244-0.244 0.641-0.244 0.885 0zM9.301 5.183l4.234 4.234c0.244 0.245 0.244 0.641 0 0.885-0.122 0.122-0.282 0.183-0.442 0.183s-0.32-0.061-0.442-0.183l-3.167-3.168v16.052h-1.25v-16.052l-3.166 3.167c-0.245 0.244-0.641 0.245-0.885 0.001-0.243-0.244-0.244-0.64 0-0.884l4.233-4.234c0.235-0.236 0.651-0.235 0.885-0.001z"></path>
</svg>
