<!-- Generated by IcoMoon.io -->
<svg version="1.1" xmlns="http://www.w3.org/2000/svg" width="28" height="28" viewBox="0 0 28 28">
<title>textsms</title>
<path d="M24 15.453v-8.926c0-1.283-1.045-2.328-2.329-2.328h-15.143c-1.284 0-2.329 1.045-2.329 2.328v8.926c0 1.284 1.045 2.329 2.329 2.329h6.443l6.408 4.614v-4.614h2.292c1.284 0 2.329-1.045 2.329-2.329zM21.671 3c1.945 0 3.528 1.582 3.528 3.527v8.926c0 1.945-1.583 3.528-3.528 3.528h-1.093v5.759l-7.994-5.759h-6.056c-1.945 0-3.528-1.583-3.528-3.528v-8.926c0-1.945 1.583-3.527 3.528-3.527h15.143zM8.882 9.562c0.629 0 1.14 0.512 1.14 1.14 0 0.63-0.511 1.14-1.14 1.14s-1.14-0.51-1.14-1.14c0-0.628 0.511-1.14 1.14-1.14zM14.1 9.562c0.629 0 1.139 0.512 1.139 1.14 0 0.63-0.51 1.14-1.139 1.14s-1.139-0.51-1.139-1.14c0-0.628 0.51-1.14 1.139-1.14zM19.318 9.562c0.629 0 1.138 0.512 1.138 1.14 0 0.63-0.509 1.14-1.138 1.14-0.631 0-1.14-0.51-1.14-1.14 0-0.628 0.509-1.14 1.14-1.14z"></path>
</svg>
