<!-- Generated by IcoMoon.io -->
<svg version="1.1" xmlns="http://www.w3.org/2000/svg" width="28" height="28" viewBox="0 0 28 28">
<title>thumb_up</title>
<path d="M22.553 14.017c-0.231 0.224-0.574 0.225-0.597 0.225h-0.001c-0.351-0.011-0.608 0.213-0.655 0.533s0.158 0.624 0.475 0.699c0.023 0.005 0.577 0.146 0.531 0.903-0.046 0.77-0.518 0.874-0.782 0.867-0.335-0.039-0.566 0.197-0.63 0.499s0.117 0.61 0.404 0.719c0.057 0.022 0.338 0.16 0.333 0.781-0.007 0.811-0.655 0.99-0.777 1.016-0.267 0.049-0.471 0.264-0.507 0.532-0.035 0.269 0.106 0.53 0.351 0.647 0.004 0.002 0.412 0.21 0.412 0.722 0 0.549-0.585 1.367-2.196 1.367h-8.321c-0.627 0-0.832-0.136-1.117-0.323-0.271-0.178-0.605-0.385-1.181-0.465v-8.668c0.669-0.516 2.518-2.022 3.288-3.506 0.71-1.363 1.361-2.879 1.308-4.722-0.026-0.86 0.158-1.236 0.317-1.4 0.080-0.082 0.226-0.193 0.561-0.193 0.902 0 1.992 1.543 1.992 3.46 0 2.277-0.416 3.611-0.42 3.623-0.060 0.191-0.027 0.399 0.091 0.56s0.305 0.257 0.504 0.257h5.554c0.609 0 1.335 0.173 1.335 0.999 0 0.4-0.091 0.692-0.272 0.868v0zM7.045 23.395c0 0.196-0.159 0.355-0.354 0.355h-2.085c-0.197 0-0.356-0.159-0.356-0.355v-10.084c0-0.196 0.159-0.356 0.356-0.356h2.085c0.195 0 0.354 0.16 0.354 0.356v10.084zM23.404 14.933c0.445-0.42 0.671-1.020 0.671-1.784 0-1.037-0.677-2.249-2.585-2.249h-4.762c0.133-0.68 0.283-1.765 0.283-3.19 0-2.552-1.484-4.71-3.242-4.71-0.59 0-1.094 0.198-1.457 0.573-0.483 0.496-0.702 1.251-0.671 2.306 0.047 1.635-0.577 2.978-1.167 4.109-0.491 0.946-1.585 1.969-2.351 2.614-0.262-0.529-0.802-0.898-1.432-0.898h-2.085c-0.886 0-1.606 0.721-1.606 1.607v10.084c0 0.886 0.72 1.605 1.606 1.605h2.085c0.678 0 1.256-0.423 1.49-1.020 0.262 0.045 0.413 0.14 0.607 0.267 0.358 0.236 0.803 0.53 1.805 0.53h8.321c2.262 0 3.446-1.317 3.446-2.617 0-0.455-0.135-0.828-0.323-1.12 0.448-0.35 0.837-0.921 0.844-1.788 0.003-0.449-0.087-0.809-0.225-1.094 0.464-0.309 0.846-0.85 0.898-1.706 0.034-0.581-0.112-1.029-0.335-1.366 0.063-0.046 0.124-0.096 0.185-0.153v0z"></path>
</svg>
