<!-- Generated by IcoMoon.io -->
<svg version="1.1" xmlns="http://www.w3.org/2000/svg" width="28" height="28" viewBox="0 0 28 28">
<title>touch_app</title>
<path d="M12.448 4.335c2.27 0 4.115 1.846 4.115 4.114 0 0.277-0.223 0.5-0.5 0.5-0.276 0-0.5-0.223-0.5-0.5 0-1.717-1.397-3.114-3.115-3.114-1.717 0-3.114 1.397-3.114 3.114 0 0.277-0.224 0.5-0.5 0.5s-0.5-0.223-0.5-0.5c0-2.268 1.845-4.114 4.114-4.114zM7 8.487c0 0.512 0.069 1.017 0.207 1.499 0.075 0.266-0.079 0.542-0.345 0.618-0.046 0.013-0.091 0.019-0.136 0.019-0.218 0-0.419-0.144-0.482-0.364-0.162-0.572-0.244-1.168-0.244-1.772 0-3.577 2.91-6.487 6.486-6.487 3.577 0 6.487 2.91 6.487 6.487 0 0.576-0.076 1.146-0.224 1.694-0.071 0.268-0.348 0.426-0.612 0.353-0.267-0.071-0.425-0.346-0.353-0.612 0.125-0.464 0.189-0.947 0.189-1.435 0-3.025-2.461-5.487-5.487-5.487s-5.486 2.462-5.486 5.487zM21.517 18.986v-5.158c0-0.472-0.384-0.856-0.855-0.856s-0.856 0.384-0.856 0.856v0.974c0 0.277-0.224 0.5-0.5 0.5s-0.5-0.223-0.5-0.5v-2.132c0-0.472-0.384-0.856-0.855-0.856s-0.856 0.384-0.856 0.856v2.132c0 0.277-0.224 0.5-0.5 0.5s-0.5-0.223-0.5-0.5v-2.132c0-0.472-0.384-0.856-0.855-0.856s-0.856 0.384-0.856 0.856v2.132c0 0.277-0.223 0.5-0.5 0.5-0.276 0-0.5-0.223-0.5-0.5v-7.102c0-0.472-0.384-0.856-0.855-0.856s-0.856 0.384-0.856 0.856v10.006c0 0.276-0.223 0.5-0.5 0.5-0.276 0-0.5-0.224-0.5-0.5v-0.857c0-0.471-0.384-0.855-0.855-0.855s-0.856 0.384-0.856 0.855v2.608c0 0.633 0.889 1.592 1.603 2.363 0.787 0.85 1.466 1.583 1.466 2.268v0.912h7.5v-1.11c0-0.653 0.381-1.222 0.822-1.881 0.545-0.815 1.164-1.739 1.164-3.023zM20.662 11.972c1.023 0 1.855 0.832 1.855 1.856v5.158c0 1.588-0.739 2.692-1.334 3.58-0.35 0.523-0.652 0.975-0.652 1.324v2.11h-9.5v-1.912c0-0.293-0.722-1.073-1.2-1.588-0.918-0.992-1.869-2.018-1.869-3.043v-2.608c0-1.023 0.832-1.855 1.856-1.855 0.31 0 0.598 0.084 0.855 0.219v-7.513c0-1.024 0.832-1.856 1.856-1.856 1.023 0 1.855 0.832 1.855 1.856v3.333c0.258-0.135 0.546-0.219 0.856-0.219 0.537 0 1.016 0.233 1.355 0.598 0.34-0.365 0.819-0.598 1.356-0.598 0.869 0 1.594 0.603 1.795 1.41 0.271-0.155 0.582-0.252 0.916-0.252z"></path>
</svg>
