<!-- Generated by IcoMoon.io -->
<svg version="1.1" xmlns="http://www.w3.org/2000/svg" width="28" height="28" viewBox="0 0 28 28">
<title>tv</title>
<path d="M3 23.226h22v-14h-22v14zM25.5 8.226c0.276 0 0.5 0.224 0.5 0.5v15c0 0.276-0.224 0.5-0.5 0.5h-23c-0.276 0-0.5-0.224-0.5-0.5v-15c0-0.276 0.224-0.5 0.5-0.5h10.51l-3.512-3.512 0.714-0.714 3.794 3.794 3.778-3.779 0.714 0.714-3.497 3.497h10.499zM9.513 19.845v-6.326h-2.288v-1.265h5.896l0.209 1.265h-2.365v6.326h-1.452zM18.017 19.879h-1.431l-2.794-7.437 1.54-0.264 2.025 5.819 1.991-5.742h1.518l-2.849 7.624z"></path>
</svg>
