<!-- Generated by IcoMoon.io -->
<svg version="1.1" xmlns="http://www.w3.org/2000/svg" width="28" height="28" viewBox="0 0 28 28">
<title>twitter</title>
<path d="M24 7.926c-0.735 0.325-1.526 0.548-2.356 0.646 0.847-0.509 1.499-1.313 1.804-2.271-0.794 0.471-1.67 0.811-2.605 0.996-0.749-0.798-1.814-1.297-2.995-1.297-2.269 0-4.105 1.837-4.105 4.105 0 0.322 0.037 0.634 0.109 0.933-3.415-0.17-6.434-1.803-8.458-4.286-0.354 0.606-0.559 1.311-0.559 2.062 0 1.424 0.728 2.679 1.828 3.416-0.673-0.023-1.306-0.205-1.86-0.514v0.052c0 1.989 1.414 3.646 3.291 4.025-0.342 0.093-0.705 0.142-1.078 0.142-0.267 0-0.524-0.025-0.773-0.073 0.521 1.63 2.036 2.817 3.831 2.848-1.401 1.102-3.172 1.757-5.093 1.757-0.332 0-0.659-0.020-0.981-0.058 1.816 1.166 3.975 1.845 6.291 1.845 7.547 0 11.675-6.252 11.675-11.674 0-0.177-0.007-0.354-0.012-0.531 0.801-0.579 1.496-1.302 2.046-2.123z"></path>
</svg>
