<!-- Generated by IcoMoon.io -->
<svg version="1.1" xmlns="http://www.w3.org/2000/svg" width="28" height="28" viewBox="0 0 28 28">
<title>user_ex</title>
<path d="M23.524 19.671l-3.564 3.726-3.579-3.74c-0.073-0.087-0.211-0.422-0.211-0.752 0-0.778 0.632-1.41 1.41-1.41 0.535 0 1.017 0.305 1.258 0.795 0.21 0.428 0.645 0.698 1.122 0.698s0.912-0.27 1.122-0.698c0.241-0.49 0.722-0.795 1.257-0.795 0.778 0 1.411 0.632 1.411 1.41 0 0.321-0.142 0.667-0.226 0.766zM11.791 13.618c-2.583 0-4.684-2.101-4.684-4.684 0-2.582 2.101-4.684 4.684-4.684s4.684 2.102 4.684 4.684c0 2.583-2.101 4.684-4.684 4.684zM22.339 16.245c-1.048 0-1.946 0.613-2.379 1.493-0.311-0.632-0.865-1.123-1.54-1.35-0.74-1.255-1.64-2.294-2.652-3.060v0.001c1.199-1.086 1.957-2.65 1.957-4.395 0-3.278-2.657-5.934-5.934-5.934s-5.934 2.656-5.934 5.934c0 1.743 0.756 3.305 1.952 4.39 0 0-0.001 0-0.001-0.001-2.851 2.157-4.808 6.542-4.808 11.615h12.507v-1.25h-11.215c0.293-4.331 2.095-7.961 4.565-9.6 0 0-0.001 0-0.001-0.001 0.866 0.495 1.866 0.781 2.935 0.781 1.065 0 2.063-0.285 2.927-0.776-0.001 0-0.001 0-0.001 0.001 0.82 0.543 1.561 1.313 2.203 2.244-1.148 0.295-2 1.327-2 2.568 0 0.618 0.245 1.304 0.573 1.63l4.135 4.323c0.091 0.095 0.211 0.142 0.332 0.142s0.241-0.047 0.331-0.142l4.136-4.323c0.319-0.318 0.573-1.012 0.573-1.63 0-1.469-1.192-2.66-2.661-2.66z"></path>
</svg>
