<!-- Generated by IcoMoon.io -->
<svg version="1.1" xmlns="http://www.w3.org/2000/svg" width="28" height="28" viewBox="0 0 28 28">
<title>user</title>
<path d="M8.5 10.5c0-3.033 2.467-5.5 5.5-5.5s5.5 2.467 5.5 5.5c0 3.033-2.468 5.5-5.5 5.5s-5.5-2.468-5.5-5.5zM16.693 16.41c2.245-1.024 3.807-3.283 3.807-5.91 0-3.59-2.91-6.5-6.5-6.5s-6.5 2.91-6.5 6.5c0 2.628 1.563 4.886 3.807 5.91-3.655 1.145-6.307 4.557-6.307 8.589h1c0-4.411 3.589-8 8-8s8 3.589 8 8h1c0-4.032-2.652-7.445-6.307-8.589z"></path>
</svg>
