<!-- Generated by IcoMoon.io -->
<svg version="1.1" xmlns="http://www.w3.org/2000/svg" width="28" height="28" viewBox="0 0 28 28">
<title>visibility</title>
<path d="M27 14.718c-1.756-3.978-5.443-8.718-13.043-8.718-7.603 0-11.289 4.74-13.043 8.718l-0.914-0.404c2.648-6.006 7.605-9.314 13.957-9.314 6.35 0 11.307 3.308 13.957 9.314l-0.914 0.404zM13.958 11.744c2.899 0 5.249 2.35 5.249 5.249 0 2.9-2.35 5.25-5.249 5.25-2.9 0-5.251-2.35-5.251-5.25s2.351-5.249 5.251-5.249zM13.958 12.744c-2.344 0-4.251 1.906-4.251 4.249s1.907 4.25 4.251 4.25c2.343 0 4.249-1.906 4.249-4.25 0-2.343-1.906-4.249-4.249-4.249z"></path>
</svg>
