<!-- Generated by IcoMoon.io -->
<svg version="1.1" xmlns="http://www.w3.org/2000/svg" width="28" height="28" viewBox="0 0 28 28">
<title>volume_down_solid</title>
<path d="M16.068 2.469c0.758-0.799 1.377-0.551 1.377 0.549v21.828c0 1.101-0.619 1.348-1.377 0.55l-5.178-5.458c-0.057-0.061-0.112-0.134-0.168-0.203h-4.722c-0.55 0-1-0.45-1-1v-9.607c0-0.55 0.45-1 1-1h4.721c0.057-0.069 0.112-0.142 0.17-0.204l5.177-5.455zM21.31 9.935c1.305 0.922 2.084 2.417 2.084 3.998s-0.779 3.076-2.086 3.996c-0.176 0.123-0.375 0.183-0.574 0.183-0.315 0-0.625-0.148-0.819-0.424-0.318-0.452-0.21-1.075 0.241-1.394 0.787-0.554 1.238-1.415 1.238-2.361s-0.451-1.809-1.238-2.365c-0.451-0.319-0.559-0.943-0.241-1.394 0.319-0.45 0.942-0.557 1.395-0.239z"></path>
</svg>
