<!-- Generated by IcoMoon.io -->
<svg version="1.1" xmlns="http://www.w3.org/2000/svg" width="28" height="28" viewBox="0 0 28 28">
<title>volume_down</title>
<path d="M16.195 23.713v-19.562l-4.397 4.633c-0.021 0.023-0.040 0.048-0.060 0.074l-0.044 0.055-0.375 0.465h-5.069v9.106h5.069l0.375 0.464 0.046 0.058c0.019 0.024 0.038 0.050 0.059 0.072l4.396 4.635zM16.874 2c0.345 0 0.571 0.354 0.571 1.018v21.828c0 0.664-0.226 1.017-0.571 1.017-0.228 0-0.505-0.152-0.806-0.467l-5.178-5.458c-0.057-0.061-0.112-0.134-0.168-0.204h-4.722c-0.55 0-1-0.45-1-1v-9.606c0-0.55 0.45-1 1-1h4.721c0.056-0.069 0.112-0.143 0.169-0.204l5.178-5.456c0.301-0.316 0.578-0.468 0.806-0.468zM21.091 10.24c1.207 0.852 1.928 2.231 1.928 3.692s-0.721 2.841-1.928 3.69c-0.109 0.077-0.234 0.114-0.359 0.114-0.198 0-0.391-0.093-0.512-0.266-0.199-0.282-0.131-0.671 0.152-0.87 0.873-0.616 1.397-1.613 1.397-2.668 0-1.070-0.51-2.044-1.399-2.671-0.281-0.199-0.349-0.588-0.15-0.871 0.199-0.282 0.59-0.349 0.871-0.15z"></path>
</svg>
