<!-- Generated by IcoMoon.io -->
<svg version="1.1" xmlns="http://www.w3.org/2000/svg" width="28" height="28" viewBox="0 0 28 28">
<title>volume_off</title>
<path d="M13.695 23.713v-19.562l-4.396 4.634c-0.021 0.022-0.040 0.047-0.059 0.072l-0.047 0.058-0.376 0.463h-5.067v9.107h5.067l0.375 0.462 0.050 0.061c0.019 0.025 0.038 0.050 0.057 0.072l4.396 4.633zM14.374 2c0.345 0 0.571 0.354 0.571 1.018v21.829c0 0.664-0.226 1.016-0.571 1.016-0.227 0-0.505-0.151-0.805-0.467l-5.178-5.458c-0.057-0.061-0.113-0.133-0.169-0.203h-4.722c-0.55 0-1-0.45-1-1v-9.607c0-0.55 0.45-1 1-1h4.721c0.057-0.069 0.113-0.143 0.17-0.203l5.177-5.456c0.301-0.317 0.579-0.469 0.806-0.469zM22.455 13.932l3.003 3.004c0.244 0.244 0.243 0.641 0 0.885-0.122 0.122-0.282 0.182-0.442 0.182s-0.321-0.060-0.443-0.182l-3.003-3.004-3.003 3.004c-0.122 0.121-0.282 0.182-0.442 0.182s-0.32-0.060-0.442-0.182c-0.244-0.244-0.245-0.641 0-0.885l3.002-3.004-3.002-3.003c-0.245-0.244-0.244-0.641 0-0.885s0.64-0.244 0.884 0l3.003 3.003 3.003-3.003c0.244-0.242 0.641-0.244 0.885 0 0.243 0.244 0.244 0.641 0 0.885l-3.003 3.003z"></path>
</svg>
