<!-- Generated by IcoMoon.io -->
<svg version="1.1" xmlns="http://www.w3.org/2000/svg" width="28" height="28" viewBox="0 0 28 28">
<title>volume_up_solid</title>
<path d="M13.069 2.468c0.757-0.798 1.376-0.551 1.376 0.549v21.829c0 1.101-0.619 1.347-1.376 0.55l-5.178-5.459c-0.057-0.061-0.112-0.133-0.169-0.202h-4.722c-0.549 0-1-0.451-1-1v-9.607c0-0.551 0.451-1 1-1h4.722c0.056-0.070 0.112-0.142 0.169-0.204l5.178-5.456zM18.31 9.934c1.305 0.922 2.084 2.417 2.084 3.998 0 1.584-0.779 3.078-2.086 3.997-0.176 0.124-0.375 0.183-0.574 0.183-0.315 0-0.625-0.148-0.819-0.425-0.318-0.451-0.21-1.075 0.243-1.393 0.785-0.553 1.236-1.415 1.236-2.362s-0.451-1.809-1.238-2.365c-0.451-0.319-0.559-0.943-0.241-1.394 0.319-0.45 0.942-0.558 1.395-0.239zM21.588 6.207c2.264 1.943 3.561 4.759 3.561 7.725 0 2.965-1.297 5.781-3.561 7.724-0.189 0.162-0.42 0.241-0.652 0.241-0.282 0-0.561-0.118-0.758-0.348-0.36-0.419-0.313-1.050 0.107-1.41 1.821-1.564 2.864-3.826 2.864-6.207s-1.043-4.644-2.864-6.207c-0.42-0.361-0.467-0.992-0.107-1.411s0.992-0.465 1.41-0.107z"></path>
</svg>
