<!-- Generated by IcoMoon.io -->
<svg version="1.1" xmlns="http://www.w3.org/2000/svg" width="28" height="28" viewBox="0 0 28 28">
<title>volume_off_solid</title>
<path d="M13.069 2.468c0.756-0.797 1.376-0.551 1.376 0.55v21.829c0 1.1-0.62 1.347-1.376 0.549l-5.178-5.458c-0.058-0.061-0.113-0.134-0.169-0.202h-4.722c-0.55 0-1-0.452-1-1v-9.608c0-0.55 0.45-1 1-1h4.721c0.057-0.069 0.112-0.142 0.17-0.203l5.178-5.457zM22.483 13.933l2.738 2.738c0.391 0.391 0.391 1.024 0 1.414-0.195 0.196-0.451 0.293-0.707 0.293s-0.511-0.097-0.707-0.293l-2.738-2.738-2.738 2.738c-0.196 0.196-0.452 0.293-0.707 0.293s-0.512-0.097-0.707-0.293c-0.391-0.39-0.391-1.023 0-1.414l2.739-2.738-2.739-2.739c-0.391-0.391-0.391-1.024 0-1.414s1.023-0.391 1.414 0l2.738 2.739 2.738-2.739c0.391-0.391 1.024-0.391 1.414 0s0.391 1.023 0 1.414l-2.738 2.739z"></path>
</svg>
