<!-- Generated by IcoMoon.io -->
<svg version="1.1" xmlns="http://www.w3.org/2000/svg" width="28" height="28" viewBox="0 0 28 28">
<title>volume_up</title>
<path d="M14.195 23.712v-19.562l-4.397 4.634c-0.021 0.023-0.040 0.048-0.060 0.074l-0.044 0.055-0.375 0.465h-5.069v9.106h5.069l0.375 0.464 0.046 0.058c0.019 0.024 0.038 0.050 0.059 0.072l4.396 4.634zM14.874 2c0.345 0 0.571 0.353 0.571 1.018v21.828c0 0.665-0.226 1.017-0.571 1.017-0.228 0-0.505-0.151-0.806-0.467l-5.178-5.458c-0.057-0.062-0.112-0.134-0.168-0.204h-4.722c-0.55 0-1-0.45-1-1v-9.606c0-0.55 0.45-1 1-1h4.721c0.056-0.070 0.112-0.143 0.169-0.204l5.178-5.456c0.301-0.317 0.578-0.468 0.806-0.468zM19.091 10.239c1.207 0.852 1.928 2.232 1.928 3.693s-0.721 2.842-1.928 3.69c-0.109 0.078-0.234 0.115-0.359 0.115-0.198 0-0.391-0.094-0.512-0.266-0.199-0.283-0.131-0.671 0.152-0.871 0.873-0.615 1.397-1.613 1.397-2.668 0-1.070-0.51-2.045-1.399-2.672-0.281-0.199-0.349-0.587-0.15-0.871 0.199-0.281 0.59-0.349 0.871-0.15zM22.342 6.491c2.182 1.873 3.432 4.584 3.432 7.439 0 2.858-1.25 5.569-3.432 7.442-0.117 0.099-0.262 0.15-0.406 0.15-0.176 0-0.352-0.074-0.475-0.218-0.224-0.262-0.195-0.657 0.067-0.881 1.904-1.635 2.996-4 2.996-6.493 0-2.49-1.092-4.857-2.996-6.49-0.262-0.226-0.291-0.621-0.067-0.883 0.227-0.261 0.619-0.289 0.881-0.066z"></path>
</svg>
