<!-- Generated by IcoMoon.io -->
<svg version="1.1" xmlns="http://www.w3.org/2000/svg" width="28" height="28" viewBox="0 0 28 28">
<title>waring</title>
<path d="M14 19.045c0.324 0 0.604 0.116 0.837 0.351 0.234 0.234 0.351 0.512 0.351 0.836 0 0.325-0.117 0.604-0.351 0.837-0.233 0.235-0.513 0.352-0.837 0.352s-0.603-0.117-0.837-0.352c-0.234-0.233-0.35-0.512-0.35-0.837s0.116-0.602 0.35-0.836c0.234-0.235 0.513-0.351 0.837-0.351zM13.099 17.64v-9.072h1.729v9.072h-1.729zM24.609 22.626c0.089-0.154 0.268-0.564 0-1.027l-9.72-16.835c-0.267-0.464-0.711-0.514-0.889-0.514s-0.622 0.050-0.89 0.514l-9.719 16.835c-0.267 0.463-0.090 0.873 0 1.027s0.355 0.514 0.89 0.514h19.438c0.536 0 0.8-0.36 0.89-0.514zM25.691 20.974c0.877 1.517-0.219 3.416-1.972 3.416h-19.438c-1.754 0-2.849-1.899-1.973-3.416l9.72-16.835c0.438-0.759 1.205-1.139 1.972-1.139s1.534 0.38 1.972 1.139l9.719 16.835z"></path>
</svg>
