<!-- Generated by IcoMoon.io -->
<svg version="1.1" xmlns="http://www.w3.org/2000/svg" width="28" height="28" viewBox="0 0 28 28">
<title>waring_solid</title>
<path d="M14.837 21.069c-0.233 0.234-0.513 0.352-0.837 0.352s-0.602-0.118-0.837-0.352c-0.234-0.233-0.35-0.513-0.35-0.837s0.116-0.602 0.35-0.837c0.235-0.234 0.513-0.35 0.837-0.35s0.604 0.116 0.837 0.35c0.234 0.235 0.352 0.513 0.352 0.837s-0.118 0.604-0.352 0.837v0zM13.1 17.64v-9.072h1.729v9.072h-1.729zM25.691 20.973l-9.718-16.835c-0.877-1.517-3.069-1.517-3.946 0l-9.718 16.835c-0.877 1.518 0.218 3.416 1.972 3.416h19.438c1.754 0 2.849-1.898 1.972-3.416v0z"></path>
</svg>
