<!-- Generated by IcoMoon.io -->
<svg version="1.1" xmlns="http://www.w3.org/2000/svg" width="28" height="28" viewBox="0 0 28 28">
<title>write</title>
<path d="M22.414 10.384c-0.006 0.006-0.012 0.012-0.018 0.017l-1.533 1.534-4.724-4.725 1.533-1.533c0.115-0.117 1.179-1.105 2.514 0.232l2.065 2.065c0.442 0.442 0.664 0.886 0.657 1.319-0.010 0.621-0.479 1.077-0.494 1.091v0zM11.43 21.369l-6.030 1.304 1.304-6.029 8.575-8.574 4.725 4.724-8.574 8.575zM23.11 7.114l-2.065-2.064c-1.767-1.764-3.539-0.924-4.233-0.232l-11.093 11.093c-0.082 0.083-0.139 0.188-0.164 0.302l-1.541 7.125c-0.043 0.201 0.018 0.411 0.164 0.558 0.115 0.114 0.27 0.177 0.429 0.177 0.043 0 0.086-0.004 0.128-0.013l7.125-1.541c0.115-0.026 0.219-0.082 0.302-0.164l9.126-9.128c0.001-0.001 0.003-0.002 0.005-0.003s0.002-0.003 0.003-0.005l1.951-1.951c0.132-0.124 0.85-0.847 0.875-1.936 0.018-0.782-0.322-1.527-1.012-2.218v0z"></path>
</svg>
