<!-- Generated by IcoMoon.io -->
<svg version="1.1" xmlns="http://www.w3.org/2000/svg" width="28" height="28" viewBox="0 0 28 28">
<title>yellowid</title>
<path d="M15 11.739v5.591c0 0.709-0.568 1.284-1.28 1.284-0.707 0-1.28-0.574-1.28-1.284v-5.572c-0.038-0.041-0.073-0.085-0.106-0.132l-3.929-5.611c-0.406-0.579-0.265-1.377 0.314-1.783s1.377-0.265 1.783 0.314l3.209 4.583 3.209-4.583c0.406-0.579 1.204-0.72 1.783-0.314s0.72 1.204 0.314 1.783l-3.929 5.611c-0.028 0.040-0.057 0.077-0.089 0.113zM7 21.493h13.44v2.24h-13.44v-2.24z"></path>
</svg>
