<!-- Generated by IcoMoon.io -->
<svg version="1.1" xmlns="http://www.w3.org/2000/svg" width="28" height="28" viewBox="0 0 28 28">
<title>youtube</title>
<path d="M24.779 10.339c0 0 0.221 1.78 0.221 3.561v1.668c0 1.781-0.221 3.561-0.221 3.561s-0.215 1.517-0.873 2.184c-0.837 0.876-1.775 0.88-2.205 0.931-3.079 0.224-7.701 0.23-7.701 0.23s-5.721-0.053-7.48-0.221c-0.491-0.092-1.59-0.064-2.427-0.94-0.659-0.667-0.874-2.184-0.874-2.184s-0.219-1.78-0.219-3.561v-1.668c0-1.781 0.219-3.561 0.219-3.561s0.215-1.517 0.874-2.184c0.837-0.877 1.775-0.88 2.205-0.932 3.080-0.223 7.698-0.223 7.698-0.223h0.009c0 0 4.617 0 7.696 0.223 0.43 0.052 1.368 0.055 2.205 0.932 0.658 0.667 0.873 2.184 0.873 2.184zM11.029 11.409v6.182l5.941-3.080-5.941-3.102z"></path>
</svg>
