<!-- Generated by IcoMoon.io -->
<svg version="1.1" xmlns="http://www.w3.org/2000/svg" width="28" height="28" viewBox="0 0 28 28">
<title>zoom_in</title>
<path d="M12 20.8c4.301 0 7.8-3.499 7.8-7.8s-3.499-7.8-7.8-7.8c-4.301 0-7.8 3.499-7.8 7.8s3.499 7.8 7.8 7.8zM24.091 23.201l-0.848 0.848-4.786-4.787c-1.637 1.686-3.922 2.738-6.457 2.738-4.971 0-9-4.029-9-9s4.029-9 9-9c4.971 0 9 4.029 9 9 0 2.003-0.662 3.847-1.769 5.342l4.86 4.859zM12.6 8v4.4h4.4v1.2h-4.4v4.4h-1.199v-4.4h-4.401v-1.2h4.401v-4.4h1.199z"></path>
</svg>
