<!-- Generated by IcoMoon.io -->
<svg version="1.1" xmlns="http://www.w3.org/2000/svg" width="28" height="28" viewBox="0 0 28 28">
<title>zzim_on</title>
<path d="M14.039 24c-0.653 0-1.268-0.254-1.729-0.714-0.085-0.095-6.688-7.437-7.358-8.108-1.259-1.255-1.952-2.925-1.952-4.701s0.693-3.446 1.952-4.702c1.193-1.19 2.655-1.769 4.469-1.769 1.39 0 2.943 0.791 4.621 2.353 1.064-1.008 2.82-2.359 4.589-2.359 1.733 0 3.208 0.632 4.51 1.931 1.256 1.254 1.95 2.923 1.95 4.698 0.001 1.776-0.693 3.447-1.95 4.704-0.118 0.123-4.867 5.247-7.36 7.938-0.475 0.475-1.090 0.729-1.742 0.729z"></path>
</svg>
