<!-- Generated by IcoMoon.io -->
<svg version="1.1" xmlns="http://www.w3.org/2000/svg" width="28" height="28" viewBox="0 0 28 28">
<title>zzim_plus</title>
<path d="M12.656 21.495c1.548-1.672 4.886-5.273 6.126-6.61l0.849 0.848c-1.204 1.299-4.322 4.662-6.127 6.612-0.428 0.426-0.981 0.655-1.569 0.655s-1.14-0.229-1.556-0.643c-0.077-0.085-6.019-6.693-6.621-7.297-1.133-1.129-1.757-2.632-1.757-4.231 0-1.598 0.624-3.101 1.757-4.23 1.074-1.073 2.389-1.593 4.021-1.593 1.252 0 2.649 0.712 4.159 2.118 0.958-0.908 2.538-2.124 4.13-2.124 1.35 0 2.518 0.454 3.568 1.325l-0.847 0.847c-0.812-0.647-1.688-0.972-2.721-0.972-0.896 0-2.101 0.654-3.305 1.795-0.231 0.219-0.528 0.328-0.825 0.328-0.294 0-0.587-0.106-0.817-0.321-1.263-1.175-2.418-1.796-3.342-1.796-1.316 0-2.324 0.394-3.174 1.242-0.906 0.903-1.405 2.104-1.405 3.381s0.499 2.478 1.404 3.381c0.621 0.622 6.201 6.827 6.641 7.316 0.189 0.18 0.428 0.275 0.69 0.275 0.272 0 0.521-0.106 0.721-0.306zM22.6 10.432h3.4v1.199h-3.4v3.401h-1.199v-3.401h-3.401v-1.199h3.401v-3.4h1.199v3.4z"></path>
</svg>
