<!-- Generated by IcoMoon.io -->
<svg version="1.1" xmlns="http://www.w3.org/2000/svg" width="28" height="28" viewBox="0 0 28 28">
<title>zzim_list</title>
<path d="M19.765 7c0.642 0 1.187 0.233 1.669 0.714 0.466 0.465 0.722 1.082 0.722 1.739s-0.256 1.276-0.722 1.741c-0.043 0.046-1.801 1.943-2.724 2.94-0.176 0.175-0.403 0.269-0.645 0.269-0.241 0-0.469-0.094-0.64-0.264-0.031-0.035-2.475-2.753-2.723-3.001-0.466-0.465-0.723-1.083-0.723-1.741 0-0.657 0.257-1.275 0.723-1.74 0.441-0.441 0.982-0.655 1.654-0.655 0.514 0 1.089 0.293 1.71 0.871 0.394-0.373 1.044-0.873 1.699-0.873zM19.765 8c-0.175 0-0.544 0.156-1.011 0.599-0.193 0.182-0.44 0.274-0.688 0.274-0.244 0-0.489-0.089-0.681-0.269-0.601-0.559-0.94-0.602-1.029-0.602-0.404 0-0.696 0.112-0.948 0.363-0.277 0.276-0.429 0.643-0.429 1.032s0.152 0.756 0.429 1.032c0.246 0.247 2.185 2.401 2.659 2.927 0.705-0.761 2.589-2.793 2.643-2.851 0.294-0.294 0.447-0.661 0.446-1.051s-0.152-0.757-0.428-1.032c-0.293-0.292-0.59-0.422-0.963-0.422zM5 9.026v-1h7v1h-7zM5 14.516v-1h7v1h-7zM5 20.026v-1h14.501v1h-14.501z"></path>
</svg>
