<!-- Generated by IcoMoon.io -->
<svg version="1.1" xmlns="http://www.w3.org/2000/svg" width="28" height="28" viewBox="0 0 28 28">
<title>zzim</title>
<path d="M9.421 5.006c-1.535 0-2.766 0.483-3.762 1.478-1.070 1.067-1.659 2.485-1.659 3.993s0.589 2.926 1.659 3.993c0.69 0.691 7.104 7.824 7.376 8.128 0.507 0.504 1.48 0.525 2.026-0.021 1.206-1.3 7.292-7.869 7.371-7.949 1.071-1.070 1.66-2.489 1.659-3.999 0-1.508-0.589-2.925-1.657-3.991-1.119-1.117-2.327-1.638-3.803-1.638-1.181 0-2.722 0.877-4.229 2.406-0.094 0.096-0.212 0.14-0.356 0.15-0.131 0-0.258-0.052-0.351-0.144-1.597-1.574-3.075-2.406-4.274-2.406zM14.039 24c-0.653 0-1.267-0.254-1.729-0.714-0.085-0.094-6.688-7.437-7.358-8.108-1.259-1.255-1.952-2.925-1.952-4.701s0.693-3.446 1.952-4.701c1.194-1.191 2.656-1.77 4.469-1.77 1.391 0 2.943 0.791 4.621 2.354 1.065-1.009 2.82-2.36 4.589-2.36 1.733 0 3.208 0.632 4.51 1.931 1.257 1.254 1.95 2.923 1.95 4.698 0.001 1.776-0.692 3.447-1.95 4.704-0.117 0.123-4.866 5.247-7.36 7.939-0.475 0.474-1.089 0.728-1.742 0.728z"></path>
</svg>
