<!-- Generated by IcoMoon.io -->
<svg version="1.1" xmlns="http://www.w3.org/2000/svg" width="28" height="28" viewBox="0 0 28 28">
<title>zzim_brand</title>
<path d="M22.417 14.644c1.086-1.087 1.675-2.506 1.674-4.014s-0.588-2.925-1.656-3.991c-1.122-1.118-2.33-1.639-3.804-1.639-1.48 0-3.079 1.307-3.901 2.085-0.193 0.183-0.44 0.275-0.688 0.275-0.245 0-0.489-0.090-0.682-0.269-1.464-1.364-2.827-2.085-3.939-2.085-1.557 0-2.752 0.47-3.763 1.478-1.069 1.067-1.658 2.485-1.658 3.993s0.589 2.927 1.658 3.993c0.688 0.689 6.955 7.658 7.374 8.125 0.272 0.262 0.628 0.405 1.007 0.405 0.392 0 0.75-0.15 1.036-0.436 2.159-2.332 7.211-7.783 7.342-7.92zM23.141 5.931c1.256 1.254 1.95 2.923 1.95 4.698 0.001 1.777-0.693 3.448-1.95 4.704-0.118 0.123-4.867 5.248-7.36 7.939-0.475 0.475-1.090 0.728-1.742 0.728-0.653 0-1.268-0.253-1.729-0.713-0.085-0.095-6.688-7.438-7.358-8.109-1.259-1.255-1.952-2.925-1.952-4.701 0-1.775 0.693-3.445 1.952-4.701 1.194-1.191 2.655-1.77 4.469-1.77 1.391 0 2.943 0.791 4.621 2.354 1.064-1.009 2.82-2.36 4.589-2.36 1.733 0 3.208 0.632 4.51 1.931zM13.994 17.072c1.147 0 1.808-0.464 1.808-1.391s-0.649-1.426-1.842-1.426h-0.893v2.817h0.927zM13.067 10.927v2.435h0.764c1.056 0 1.624-0.464 1.624-1.252 0-0.729-0.452-1.183-1.542-1.183h-0.846zM15.374 13.733c0.892 0.267 1.495 0.869 1.495 1.925 0 1.6-1.113 2.342-2.956 2.342h-1.913v-8h1.936c1.762 0 2.585 0.846 2.585 2.075 0 0.811-0.428 1.356-1.147 1.658z"></path>
</svg>
